<svg width="264" height="189" viewBox="0 0 264 189" fill="none" xmlns="http://www.w3.org/2000/svg">
<path d="M215.107 0.670166H54.2558C46.8529 0.670166 40.8516 6.67146 40.8516 14.0744V174.925C40.8516 182.328 46.8529 188.33 54.2558 188.33H215.107C222.51 188.33 228.511 182.328 228.511 174.925V14.0744C228.511 6.67146 222.51 0.670166 215.107 0.670166Z" fill="url(#paint0_linear_3411_28943)"/>
<g filter="url(#filter0_d_3411_28943)">
<path d="M193.66 14.075H12.7021C9.00064 14.075 6 17.0756 6 20.7771V54.2877C6 57.9892 9.00064 60.9898 12.7021 60.9898H193.66C197.361 60.9898 200.362 57.9892 200.362 54.2877V20.7771C200.362 17.0756 197.361 14.075 193.66 14.075Z" fill="white"/>
</g>
<path d="M98.4895 24.7981H63.6385C61.4176 24.7981 59.6172 26.5985 59.6172 28.8194C59.6172 31.0403 61.4176 32.8406 63.6385 32.8406H98.4895C100.71 32.8406 102.511 31.0403 102.511 28.8194C102.511 26.5985 100.71 24.7981 98.4895 24.7981Z" fill="#BFB4FF"/>
<path d="M122.617 42.2236H63.6385C61.4176 42.2236 59.6172 44.024 59.6172 46.2449C59.6172 48.4658 61.4176 50.2662 63.6385 50.2662H122.617C124.838 50.2662 126.638 48.4658 126.638 46.2449C126.638 44.024 124.838 42.2236 122.617 42.2236Z" fill="#E8DEFC"/>
<path d="M42.1937 18.0957H16.7256C13.0241 18.0957 10.0234 21.0963 10.0234 24.7978V50.2659C10.0234 53.9674 13.0241 56.968 16.7256 56.968H42.1937C45.8951 56.968 48.8958 53.9674 48.8958 50.2659V24.7978C48.8958 21.0963 45.8951 18.0957 42.1937 18.0957Z" fill="#5200FF"/>
<path d="M26.4052 41.9288H29.086L29.1155 40.8967C29.1155 39.5402 29.9707 39.1863 31.1798 38.803C32.3926 38.458 33.4601 37.7275 34.2209 36.7219C34.9818 35.7163 35.3945 34.4904 35.3967 33.2295C35.4233 32.4596 35.2898 31.6926 35.0045 30.977C34.7193 30.2614 34.2887 29.6129 33.7398 29.0723C33.191 28.5318 32.5359 28.1111 31.816 27.8368C31.0962 27.5626 30.3272 27.4407 29.5579 27.4791C28.7448 27.4613 27.9366 27.6089 27.1822 27.913C26.4279 28.217 25.7432 28.671 25.1696 29.2476C24.5961 29.8242 24.1456 30.5113 23.8455 31.2672C23.5455 32.0231 23.4021 32.832 23.4241 33.645H26.1961C26.1855 33.1961 26.2647 32.7497 26.429 32.3318C26.5932 31.9139 26.8392 31.533 27.1526 31.2114C27.4659 30.8898 27.8403 30.634 28.2538 30.459C28.6673 30.2839 29.1115 30.1932 29.5605 30.1921C29.9654 30.1686 30.3707 30.2326 30.7487 30.3796C31.1266 30.5267 31.4685 30.7534 31.7511 31.0444C32.0337 31.3354 32.2503 31.6837 32.3862 32.0659C32.5222 32.448 32.5743 32.8549 32.539 33.259C32.5211 33.9129 32.2937 34.5439 31.8902 35.0589C31.4867 35.5739 30.9285 35.9456 30.2978 36.1194L29.3246 36.5055C28.3719 36.735 27.5401 37.314 26.9939 38.1278C26.4478 38.9415 26.2271 39.9307 26.3757 40.8994L26.4052 41.9288ZM27.7322 48.3012C27.9947 48.3105 28.2564 48.2671 28.5019 48.1736C28.7473 48.08 28.9715 47.9382 29.1612 47.7565C29.3509 47.5748 29.5023 47.3569 29.6063 47.1157C29.7103 46.8745 29.765 46.6149 29.767 46.3522C29.7646 46.0898 29.7097 45.8305 29.6055 45.5896C29.5013 45.3487 29.3499 45.1311 29.1603 44.9497C28.9706 44.7683 28.7465 44.6267 28.5013 44.5333C28.256 44.4399 27.9945 44.3966 27.7322 44.4059C27.4699 44.3966 27.2084 44.4399 26.9631 44.5333C26.7179 44.6267 26.4938 44.7683 26.3041 44.9497C26.1145 45.1311 25.9631 45.3487 25.8589 45.5896C25.7547 45.8305 25.6998 46.0898 25.6974 46.3522C25.6994 46.6149 25.754 46.8745 25.8581 47.1157C25.9621 47.3569 26.1135 47.5748 26.3032 47.7565C26.4929 47.9382 26.7171 48.08 26.9625 48.1736C27.208 48.2671 27.4697 48.3105 27.7322 48.3012Z" fill="white"/>
<g filter="url(#filter1_d_3411_28943)">
<path d="M70.3428 71.7124H251.3C253.078 71.7124 254.782 72.4185 256.039 73.6754C257.296 74.9323 258.002 76.637 258.002 78.4145V111.925C258.002 113.703 257.296 115.407 256.039 116.664C254.782 117.921 253.078 118.627 251.3 118.627H70.3428C68.5652 118.627 66.8605 117.921 65.6036 116.664C64.3467 115.407 63.6406 113.703 63.6406 111.925V78.4145C63.6406 76.637 64.3467 74.9323 65.6036 73.6754C66.8605 72.4185 68.5652 71.7124 70.3428 71.7124V71.7124Z" fill="white"/>
</g>
<path d="M156.13 82.4355H121.279C119.058 82.4355 117.258 84.2359 117.258 86.4568C117.258 88.6777 119.058 90.4781 121.279 90.4781H156.13C158.351 90.4781 160.151 88.6777 160.151 86.4568C160.151 84.2359 158.351 82.4355 156.13 82.4355Z" fill="#BFB4FF"/>
<path d="M180.258 99.8611H121.279C119.058 99.8611 117.258 101.661 117.258 103.882C117.258 106.103 119.058 107.904 121.279 107.904H180.258C182.479 107.904 184.279 106.103 184.279 103.882C184.279 101.661 182.479 99.8611 180.258 99.8611Z" fill="#E8DEFC"/>
<path d="M99.8265 75.7334H74.3584C70.6569 75.7334 67.6562 78.734 67.6562 82.4355V107.904C67.6562 111.605 70.6569 114.606 74.3584 114.606H99.8265C103.528 114.606 106.529 111.605 106.529 107.904V82.4355C106.529 78.734 103.528 75.7334 99.8265 75.7334Z" fill="#5200FF"/>
<path d="M84.038 99.5665H86.7188L86.7483 98.5344C86.7483 97.1779 87.6035 96.824 88.8126 96.4407C90.0254 96.0957 91.0929 95.3652 91.8538 94.3596C92.6146 93.354 93.0273 92.1281 93.0296 90.8672C93.0561 90.0973 92.9226 89.3303 92.6374 88.6147C92.3521 87.8991 91.9215 87.2506 91.3726 86.71C90.8238 86.1695 90.1687 85.7488 89.4488 85.4745C88.729 85.2003 87.96 85.0784 87.1907 85.1167C86.3776 85.099 85.5694 85.2466 84.815 85.5507C84.0607 85.8547 83.376 86.3087 82.8025 86.8853C82.2289 87.4619 81.7784 88.1489 81.4783 88.9049C81.1783 89.6608 81.0349 90.4697 81.0569 91.2827H83.8289C83.8184 90.8338 83.8975 90.3874 84.0618 89.9695C84.226 89.5516 84.472 89.1707 84.7854 88.8491C85.0987 88.5275 85.4731 88.2717 85.8866 88.0967C86.3001 87.9216 86.7443 87.8309 87.1933 87.8298C87.5983 87.8063 88.0035 87.8703 88.3815 88.0173C88.7595 88.1644 89.1014 88.3911 89.3839 88.6821C89.6665 88.973 89.8831 89.3214 90.0191 89.7036C90.155 90.0857 90.2071 90.4926 90.1718 90.8967C90.1539 91.5506 89.9265 92.1816 89.523 92.6966C89.1195 93.2116 88.5613 93.5833 87.9306 93.7571L86.9574 94.1432C86.0047 94.3727 85.1729 94.9517 84.6267 95.7655C84.0806 96.5792 83.8599 97.5684 84.0085 98.5371L84.038 99.5665ZM85.365 105.939C85.6275 105.948 85.8892 105.905 86.1347 105.811C86.3801 105.718 86.6043 105.576 86.794 105.394C86.9837 105.212 87.1351 104.995 87.2391 104.753C87.3432 104.512 87.3978 104.253 87.3998 103.99C87.3974 103.727 87.3425 103.468 87.2383 103.227C87.1341 102.986 86.9827 102.769 86.7931 102.587C86.6034 102.406 86.3793 102.264 86.1341 102.171C85.8888 102.078 85.6273 102.034 85.365 102.044C85.1027 102.034 84.8412 102.078 84.5959 102.171C84.3507 102.264 84.1266 102.406 83.9369 102.587C83.7473 102.769 83.5959 102.986 83.4917 103.227C83.3875 103.468 83.3326 103.727 83.3302 103.99C83.3322 104.253 83.3869 104.512 83.4909 104.753C83.5949 104.995 83.7463 105.212 83.936 105.394C84.1257 105.576 84.3499 105.718 84.5953 105.811C84.8408 105.905 85.1025 105.948 85.365 105.939Z" fill="white"/>
<g filter="url(#filter2_d_3411_28943)">
<path d="M12.7021 129.35H193.66C195.437 129.35 197.142 130.056 198.399 131.313C199.656 132.57 200.362 134.275 200.362 136.052V169.563C200.362 171.34 199.656 173.045 198.399 174.302C197.142 175.559 195.437 176.265 193.66 176.265H12.7021C10.9246 176.265 9.2199 175.559 7.96301 174.302C6.70612 173.045 6 171.34 6 169.563V136.052C6 134.275 6.70612 132.57 7.96301 131.313C9.2199 130.056 10.9246 129.35 12.7021 129.35V129.35Z" fill="white"/>
</g>
<path d="M98.4895 140.074H63.6385C61.4176 140.074 59.6172 141.875 59.6172 144.095C59.6172 146.316 61.4176 148.117 63.6385 148.117H98.4895C100.71 148.117 102.511 146.316 102.511 144.095C102.511 141.875 100.71 140.074 98.4895 140.074Z" fill="#BFB4FF"/>
<path d="M122.617 157.5H63.6385C61.4176 157.5 59.6172 159.3 59.6172 161.521C59.6172 163.742 61.4176 165.542 63.6385 165.542H122.617C124.838 165.542 126.638 163.742 126.638 161.521C126.638 159.3 124.838 157.5 122.617 157.5Z" fill="#E8DEFC"/>
<path d="M42.1937 133.371H16.7256C13.0241 133.371 10.0234 136.372 10.0234 140.073V165.541C10.0234 169.243 13.0241 172.243 16.7256 172.243H42.1937C45.8951 172.243 48.8958 169.243 48.8958 165.541V140.073C48.8958 136.372 45.8951 133.371 42.1937 133.371Z" fill="#5200FF"/>
<path d="M26.4052 157.203H29.086L29.1155 156.171C29.1155 154.814 29.9707 154.46 31.1798 154.077C32.3926 153.732 33.4601 153.002 34.2209 151.996C34.9818 150.991 35.3945 149.765 35.3967 148.504C35.4233 147.734 35.2898 146.967 35.0045 146.251C34.7193 145.536 34.2887 144.887 33.7398 144.346C33.191 143.806 32.5359 143.385 31.816 143.111C31.0962 142.837 30.3272 142.715 29.5579 142.753C28.7448 142.735 27.9366 142.883 27.1822 143.187C26.4279 143.491 25.7432 143.945 25.1696 144.522C24.5961 145.098 24.1456 145.785 23.8455 146.541C23.5455 147.297 23.4021 148.106 23.4241 148.919H26.1961C26.1855 148.47 26.2647 148.024 26.429 147.606C26.5932 147.188 26.8392 146.807 27.1526 146.486C27.4659 146.164 27.8403 145.908 28.2538 145.733C28.6673 145.558 29.1115 145.467 29.5605 145.466C29.9654 145.443 30.3707 145.507 30.7487 145.654C31.1266 145.801 31.4685 146.028 31.7511 146.319C32.0337 146.61 32.2503 146.958 32.3862 147.34C32.5222 147.722 32.5743 148.129 32.539 148.533C32.5211 149.187 32.2937 149.818 31.8902 150.333C31.4867 150.848 30.9285 151.22 30.2978 151.394L29.3246 151.78C28.3719 152.009 27.5401 152.588 26.9939 153.402C26.4478 154.216 26.2271 155.205 26.3757 156.174L26.4052 157.203ZM27.7322 163.575C27.9947 163.585 28.2564 163.541 28.5019 163.448C28.7473 163.354 28.9715 163.212 29.1612 163.031C29.3509 162.849 29.5023 162.631 29.6063 162.39C29.7103 162.149 29.765 161.889 29.767 161.626C29.7646 161.364 29.7097 161.105 29.6055 160.864C29.5013 160.623 29.3499 160.405 29.1603 160.224C28.9706 160.042 28.7465 159.901 28.5013 159.808C28.256 159.714 27.9945 159.671 27.7322 159.68C27.4699 159.671 27.2084 159.714 26.9631 159.808C26.7179 159.901 26.4938 160.042 26.3041 160.224C26.1145 160.405 25.9631 160.623 25.8589 160.864C25.7547 161.105 25.6998 161.364 25.6974 161.626C25.6994 161.889 25.754 162.149 25.8581 162.39C25.9621 162.631 26.1135 162.849 26.3032 163.031C26.4929 163.212 26.7171 163.354 26.9625 163.448C27.208 163.541 27.4697 163.585 27.7322 163.575Z" fill="white"/>
<defs>
<filter id="filter0_d_3411_28943" x="0" y="11.075" width="206.359" height="58.9148" filterUnits="userSpaceOnUse" color-interpolation-filters="sRGB">
<feFlood flood-opacity="0" result="BackgroundImageFix"/>
<feColorMatrix in="SourceAlpha" type="matrix" values="0 0 0 0 0 0 0 0 0 0 0 0 0 0 0 0 0 0 127 0" result="hardAlpha"/>
<feOffset dy="3"/>
<feGaussianBlur stdDeviation="3"/>
<feColorMatrix type="matrix" values="0 0 0 0 0 0 0 0 0 0 0 0 0 0 0 0 0 0 0.161 0"/>
<feBlend mode="normal" in2="BackgroundImageFix" result="effect1_dropShadow_3411_28943"/>
<feBlend mode="normal" in="SourceGraphic" in2="effect1_dropShadow_3411_28943" result="shape"/>
</filter>
<filter id="filter1_d_3411_28943" x="57.6406" y="68.7124" width="206.359" height="58.9148" filterUnits="userSpaceOnUse" color-interpolation-filters="sRGB">
<feFlood flood-opacity="0" result="BackgroundImageFix"/>
<feColorMatrix in="SourceAlpha" type="matrix" values="0 0 0 0 0 0 0 0 0 0 0 0 0 0 0 0 0 0 127 0" result="hardAlpha"/>
<feOffset dy="3"/>
<feGaussianBlur stdDeviation="3"/>
<feColorMatrix type="matrix" values="0 0 0 0 0 0 0 0 0 0 0 0 0 0 0 0 0 0 0.161 0"/>
<feBlend mode="normal" in2="BackgroundImageFix" result="effect1_dropShadow_3411_28943"/>
<feBlend mode="normal" in="SourceGraphic" in2="effect1_dropShadow_3411_28943" result="shape"/>
</filter>
<filter id="filter2_d_3411_28943" x="0" y="126.35" width="206.359" height="58.9148" filterUnits="userSpaceOnUse" color-interpolation-filters="sRGB">
<feFlood flood-opacity="0" result="BackgroundImageFix"/>
<feColorMatrix in="SourceAlpha" type="matrix" values="0 0 0 0 0 0 0 0 0 0 0 0 0 0 0 0 0 0 127 0" result="hardAlpha"/>
<feOffset dy="3"/>
<feGaussianBlur stdDeviation="3"/>
<feColorMatrix type="matrix" values="0 0 0 0 0 0 0 0 0 0 0 0 0 0 0 0 0 0 0.161 0"/>
<feBlend mode="normal" in2="BackgroundImageFix" result="effect1_dropShadow_3411_28943"/>
<feBlend mode="normal" in="SourceGraphic" in2="effect1_dropShadow_3411_28943" result="shape"/>
</filter>
<linearGradient id="paint0_linear_3411_28943" x1="134.681" y1="0.670166" x2="134.681" y2="188.33" gradientUnits="userSpaceOnUse">
<stop stop-color="#ECE3FA"/>
<stop offset="1" stop-color="#EDDAFF"/>
</linearGradient>
</defs>
</svg>
