<svg width="39" height="25" viewBox="0 0 39 25" fill="none" xmlns="http://www.w3.org/2000/svg">
<path d="M0.695312 13.2748C0.719687 19.3067 5.65139 24.25 11.7098 24.25C17.7832 24.25 22.724 19.3267 22.724 13.2748V11.7255C22.724 9.2335 24.7586 7.206 27.2595 7.206C29.7605 7.206 31.795 9.2335 31.795 11.7255C31.795 12.4385 32.3752 13.0167 33.0909 13.0167H36.9783C37.6943 13.0167 38.2743 12.4385 38.2743 11.7255C38.2743 5.67366 33.3335 0.75 27.2597 0.75C21.1864 0.75 16.2453 5.67366 16.2453 11.7255V13.2748C16.2453 15.7672 14.2105 17.794 11.7101 17.794C9.20938 17.794 7.17463 15.7672 7.17463 13.2748C7.17463 12.5618 6.59436 11.9836 5.87877 11.9836H1.99117C1.27558 11.984 0.695312 12.5618 0.695312 13.2748Z" fill="url(#paint0_linear_3745_1597)"/>
<defs>
<linearGradient id="paint0_linear_3745_1597" x1="19.4848" y1="0.75" x2="19.4848" y2="24.25" gradientUnits="userSpaceOnUse">
<stop stop-color="#B924FF"/>
<stop offset="1" stop-color="#5200FF"/>
</linearGradient>
</defs>
</svg>
