<svg width="22" height="17" viewBox="0 0 22 17" fill="none" xmlns="http://www.w3.org/2000/svg">
<g id="DoubleQuotation"></g>
<path d="M9.633 0L5.13 7.353C6.308 7.467 7.277 7.942 8.037 8.778C8.797 9.614 9.177 10.621 9.177 11.799C9.177 13.091 8.74 14.155 7.866 14.991C6.992 15.827 5.928 16.245 4.674 16.245C3.344 16.245 2.223 15.827 1.311 14.991C0.437 14.155 0 13.034 0 11.628C0 10.374 0.456 8.968 1.368 7.41C2.28 5.814 3.781 3.534 5.871 0.569999L6.327 0H9.633ZM21.261 0L16.758 7.353C17.936 7.467 18.905 7.942 19.665 8.778C20.463 9.614 20.862 10.621 20.862 11.799C20.862 13.091 20.425 14.155 19.551 14.991C18.677 15.827 17.594 16.245 16.302 16.245C15.01 16.245 13.908 15.827 12.996 14.991C12.084 14.155 11.628 13.034 11.628 11.628C11.628 10.374 12.084 8.968 12.996 7.41C13.946 5.814 15.466 3.534 17.556 0.569999L17.955 0H21.261Z" fill="#1A1F23"/>
</svg>
