<svg width="255" height="120" viewBox="0 0 255 120" fill="none" xmlns="http://www.w3.org/2000/svg">
<g filter="url(#filter0_d_3619_15967)">
<rect x="12" y="8" width="231" height="96" rx="16" fill="#F7F7F7" shape-rendering="crispEdges"/>
<path d="M72.5363 52.1206V60.3825H84.0175C83.5134 63.0394 82.0005 65.2892 79.7314 66.8019L86.655 72.1741C90.689 68.4506 93.0163 62.9814 93.0163 56.4845C93.0163 54.9718 92.8806 53.5171 92.6284 52.1208L72.5363 52.1206Z" fill="#4285F4"/>
<path d="M60.5803 60.06L59.0187 61.2553L53.4913 65.5607C57.0016 72.5231 64.1963 77.3329 72.5357 77.3329C78.2956 77.3329 83.1247 75.4323 86.6545 72.1742L79.7308 66.802C77.8302 68.082 75.4059 68.8578 72.5357 68.8578C66.989 68.8578 62.2764 65.1148 60.589 60.0723L60.5803 60.06Z" fill="#34A853"/>
<path d="M53.4915 46.4382C52.037 49.3084 51.2031 52.5473 51.2031 55.9994C51.2031 59.4515 52.0368 62.6905 53.4913 65.5607C53.4913 65.58 60.5898 60.0526 60.5898 60.0526C60.1632 58.7726 59.911 57.4151 59.911 55.9992C59.911 54.5832 60.1632 53.2257 60.5898 51.9457L53.4915 46.4382Z" fill="#FBBC05"/>
<path d="M72.5362 43.1606C75.678 43.1606 78.4707 44.2466 80.7011 46.3412L86.8101 40.2322C83.1059 36.7801 78.2963 34.666 72.5362 34.666C64.1968 34.666 57.0018 39.4564 53.4915 46.4382L60.5895 51.9461C62.2767 46.9036 66.9895 43.1606 72.5362 43.1606Z" fill="#EA4335"/>
<path d="M129.888 65.24C128.4 65.24 127.104 64.984 126 64.472C124.896 63.96 123.976 63.272 123.24 62.408C122.52 61.528 121.976 60.552 121.608 59.48C121.256 58.392 121.08 57.28 121.08 56.144C121.08 55.008 121.256 53.896 121.608 52.808C121.976 51.72 122.528 50.744 123.264 49.88C124 49 124.928 48.304 126.048 47.792C127.168 47.264 128.472 47 129.96 47C131.128 47 132.128 47.152 132.96 47.456C133.808 47.744 134.512 48.12 135.072 48.584C135.648 49.048 136.104 49.544 136.44 50.072C136.792 50.584 137.056 51.072 137.232 51.536C137.408 52 137.528 52.384 137.592 52.688C137.656 52.976 137.688 53.12 137.688 53.12H134.424C134.424 53.12 134.392 53.016 134.328 52.808C134.28 52.584 134.168 52.312 133.992 51.992C133.816 51.672 133.56 51.352 133.224 51.032C132.904 50.712 132.48 50.448 131.952 50.24C131.424 50.016 130.768 49.904 129.984 49.904C129.04 49.904 128.216 50.08 127.512 50.432C126.824 50.784 126.248 51.256 125.784 51.848C125.32 52.44 124.976 53.104 124.752 53.84C124.528 54.576 124.416 55.328 124.416 56.096C124.416 57.136 124.624 58.136 125.04 59.096C125.456 60.056 126.072 60.84 126.888 61.448C127.72 62.056 128.744 62.36 129.96 62.36C131.368 62.36 132.48 61.976 133.296 61.208C134.128 60.44 134.6 59.416 134.712 58.136H129.864V55.544H137.88V56.864C137.88 58.704 137.528 60.248 136.824 61.496C136.12 62.728 135.16 63.664 133.944 64.304C132.744 64.928 131.392 65.24 129.888 65.24ZM146.738 65.24C145.346 65.24 144.162 64.928 143.186 64.304C142.21 63.68 141.466 62.872 140.954 61.88C140.458 60.872 140.21 59.792 140.21 58.64C140.21 57.488 140.458 56.416 140.954 55.424C141.466 54.416 142.21 53.6 143.186 52.976C144.162 52.352 145.346 52.04 146.738 52.04C148.146 52.04 149.33 52.352 150.29 52.976C151.266 53.6 152.002 54.416 152.498 55.424C153.01 56.416 153.266 57.488 153.266 58.64C153.266 59.792 153.01 60.872 152.498 61.88C152.002 62.872 151.266 63.68 150.29 64.304C149.33 64.928 148.146 65.24 146.738 65.24ZM146.738 62.576C147.458 62.576 148.058 62.392 148.538 62.024C149.034 61.656 149.41 61.176 149.666 60.584C149.922 59.976 150.05 59.328 150.05 58.64C150.05 57.936 149.922 57.288 149.666 56.696C149.41 56.104 149.034 55.624 148.538 55.256C148.058 54.888 147.458 54.704 146.738 54.704C146.034 54.704 145.434 54.888 144.938 55.256C144.442 55.624 144.066 56.104 143.81 56.696C143.554 57.288 143.426 57.936 143.426 58.64C143.426 59.328 143.554 59.976 143.81 60.584C144.066 61.176 144.442 61.656 144.938 62.024C145.434 62.392 146.034 62.576 146.738 62.576ZM162.277 65.24C160.885 65.24 159.701 64.928 158.725 64.304C157.749 63.68 157.005 62.872 156.493 61.88C155.997 60.872 155.749 59.792 155.749 58.64C155.749 57.488 155.997 56.416 156.493 55.424C157.005 54.416 157.749 53.6 158.725 52.976C159.701 52.352 160.885 52.04 162.277 52.04C163.685 52.04 164.869 52.352 165.829 52.976C166.805 53.6 167.541 54.416 168.037 55.424C168.549 56.416 168.805 57.488 168.805 58.64C168.805 59.792 168.549 60.872 168.037 61.88C167.541 62.872 166.805 63.68 165.829 64.304C164.869 64.928 163.685 65.24 162.277 65.24ZM162.277 62.576C162.997 62.576 163.597 62.392 164.077 62.024C164.573 61.656 164.949 61.176 165.205 60.584C165.461 59.976 165.589 59.328 165.589 58.64C165.589 57.936 165.461 57.288 165.205 56.696C164.949 56.104 164.573 55.624 164.077 55.256C163.597 54.888 162.997 54.704 162.277 54.704C161.573 54.704 160.973 54.888 160.477 55.256C159.981 55.624 159.605 56.104 159.349 56.696C159.093 57.288 158.965 57.936 158.965 58.64C158.965 59.328 159.093 59.976 159.349 60.584C159.605 61.176 159.981 61.656 160.477 62.024C160.973 62.392 161.573 62.576 162.277 62.576ZM177.864 70.088C176.728 70.088 175.784 69.936 175.032 69.632C174.296 69.344 173.712 68.984 173.28 68.552C172.848 68.136 172.528 67.712 172.32 67.28C172.112 66.848 171.976 66.488 171.912 66.2C171.848 65.912 171.816 65.768 171.816 65.768H174.936C174.936 65.768 174.968 65.856 175.032 66.032C175.096 66.208 175.224 66.408 175.416 66.632C175.624 66.872 175.92 67.08 176.304 67.256C176.688 67.432 177.2 67.52 177.84 67.52C178.96 67.52 179.768 67.2 180.264 66.56C180.76 65.92 181.008 65.144 181.008 64.232V62.816H180.864C180.688 63.088 180.432 63.384 180.096 63.704C179.776 64.024 179.352 64.296 178.824 64.52C178.312 64.744 177.688 64.856 176.952 64.856C176.008 64.856 175.184 64.672 174.48 64.304C173.776 63.936 173.184 63.448 172.704 62.84C172.224 62.232 171.864 61.552 171.624 60.8C171.4 60.032 171.288 59.248 171.288 58.448C171.288 57.648 171.4 56.872 171.624 56.12C171.864 55.352 172.224 54.664 172.704 54.056C173.184 53.432 173.776 52.944 174.48 52.592C175.184 52.224 176.008 52.04 176.952 52.04C177.688 52.04 178.312 52.152 178.824 52.376C179.352 52.6 179.776 52.872 180.096 53.192C180.432 53.496 180.688 53.784 180.864 54.056H181.008V52.28H184.2V64.208C184.2 65.312 183.968 66.304 183.504 67.184C183.04 68.08 182.336 68.784 181.392 69.296C180.464 69.824 179.288 70.088 177.864 70.088ZM177.792 62.288C178.512 62.288 179.112 62.104 179.592 61.736C180.072 61.352 180.432 60.872 180.672 60.296C180.912 59.704 181.032 59.088 181.032 58.448C181.032 57.792 180.912 57.176 180.672 56.6C180.432 56.008 180.072 55.528 179.592 55.16C179.112 54.792 178.512 54.608 177.792 54.608C177.056 54.608 176.44 54.792 175.944 55.16C175.464 55.528 175.104 56.008 174.864 56.6C174.624 57.176 174.504 57.792 174.504 58.448C174.504 59.088 174.624 59.704 174.864 60.296C175.104 60.872 175.464 61.352 175.944 61.736C176.44 62.104 177.056 62.288 177.792 62.288ZM187.423 65L187.447 46.76H190.615V65H187.423ZM199.89 65.24C198.802 65.24 197.858 65.056 197.058 64.688C196.274 64.304 195.618 63.8 195.09 63.176C194.578 62.536 194.194 61.824 193.938 61.04C193.682 60.256 193.554 59.456 193.554 58.64C193.554 57.824 193.674 57.032 193.914 56.264C194.17 55.48 194.546 54.768 195.042 54.128C195.554 53.488 196.202 52.984 196.986 52.616C197.77 52.232 198.698 52.04 199.77 52.04C200.922 52.04 201.938 52.296 202.818 52.808C203.698 53.32 204.386 54.072 204.882 55.064C205.378 56.04 205.626 57.256 205.626 58.712V59.528H196.77C196.818 60.392 197.114 61.144 197.658 61.784C198.202 62.408 198.946 62.72 199.89 62.72C200.434 62.72 200.882 62.632 201.234 62.456C201.586 62.28 201.858 62.08 202.05 61.856C202.242 61.616 202.378 61.416 202.458 61.256C202.538 61.08 202.578 60.992 202.578 60.992H205.53C205.53 60.992 205.49 61.136 205.41 61.424C205.33 61.696 205.178 62.048 204.954 62.48C204.746 62.896 204.434 63.32 204.018 63.752C203.602 64.168 203.058 64.52 202.386 64.808C201.714 65.096 200.882 65.24 199.89 65.24ZM196.77 57.44H202.554C202.506 56.448 202.21 55.712 201.666 55.232C201.122 54.752 200.482 54.512 199.746 54.512C198.93 54.512 198.25 54.776 197.706 55.304C197.162 55.816 196.85 56.528 196.77 57.44Z" fill="#5E6A6E"/>
<a href="https://fullstack.edu.vn">
<rect fill="black" fill-opacity="0" y="-0.18" width="86.9218" height="30.36"/>
</a>
</g>
<defs>
<filter id="filter0_d_3619_15967" x="0" y="0" width="255" height="120" filterUnits="userSpaceOnUse" color-interpolation-filters="sRGB">
<feFlood flood-opacity="0" result="BackgroundImageFix"/>
<feColorMatrix in="SourceAlpha" type="matrix" values="0 0 0 0 0 0 0 0 0 0 0 0 0 0 0 0 0 0 127 0" result="hardAlpha"/>
<feOffset dy="4"/>
<feGaussianBlur stdDeviation="6"/>
<feComposite in2="hardAlpha" operator="out"/>
<feColorMatrix type="matrix" values="0 0 0 0 0 0 0 0 0 0 0 0 0 0 0 0 0 0 0.04 0"/>
<feBlend mode="normal" in2="BackgroundImageFix" result="effect1_dropShadow_3619_15967"/>
<feBlend mode="normal" in="SourceGraphic" in2="effect1_dropShadow_3619_15967" result="shape"/>
</filter>
</defs>
</svg>
