<svg width="24" height="24" viewBox="0 0 24 24" fill="none" xmlns="http://www.w3.org/2000/svg">
<g id="Instagram Logomark">
<mask id="mask0_3414_66658" style="mask-type:alpha" maskUnits="userSpaceOnUse" x="0" y="0" width="24" height="24">
<path id="Logo" d="M7.03015 0.0830982C5.75333 0.143362 4.88126 0.347876 4.1192 0.646479C3.33033 0.954017 2.6616 1.36616 1.99637 2.03413C1.33035 2.70248 0.921328 3.37239 0.61613 4.16206C0.320637 4.92606 0.1204 5.79855 0.0640167 7.07616C0.00803666 8.35611 -0.00480094 8.76435 0.00143906 12.0229C0.00765506 15.2811 0.0220359 15.6901 0.0830727 16.9705C0.144107 18.2469 0.347858 19.1186 0.646458 19.8811C0.954386 20.67 1.36611 21.3383 2.03446 22.004C2.70242 22.6696 3.37271 23.0782 4.16275 23.3838C4.92597 23.679 5.79882 23.88 7.07605 23.9359C8.35598 23.9923 8.76459 24.0048 12.0224 23.9985C15.2817 23.9923 15.6903 23.9779 16.9702 23.9173C18.2471 23.8562 19.1184 23.6517 19.8812 23.3539C20.6701 23.0452 21.3388 22.6342 22.004 21.9659C22.6693 21.2979 23.0783 20.6276 23.3835 19.8375C23.679 19.0743 23.88 18.2015 23.9356 16.925C23.9916 15.6443 24.0048 15.2353 23.9986 11.9771C23.9924 8.71847 23.9776 8.31023 23.917 7.03068C23.8563 5.75306 23.6518 4.88174 23.3536 4.1189C23.0453 3.33002 22.6339 2.66205 21.9659 1.99603C21.298 1.33078 20.6277 0.920974 19.8377 0.616544C19.0741 0.321049 18.2016 0.119643 16.9244 0.0644334C15.6444 0.00766862 15.2358 -0.00476578 11.9769 0.00145262C8.71872 0.00767102 8.31011 0.0216726 7.03015 0.0830982ZM7.17014 21.7761C6.00023 21.7252 5.36494 21.5308 4.94154 21.3679C4.38088 21.1509 3.98081 20.8908 3.55973 20.4729C3.13944 20.0533 2.87855 19.6544 2.65966 19.0949C2.49518 18.6715 2.29729 18.037 2.24248 16.8671C2.18298 15.6023 2.16939 15.2228 2.16355 12.0187C2.15733 8.81529 2.16898 8.43581 2.2242 7.16987C2.27434 6.00072 2.46993 5.36464 2.63244 4.94161C2.84938 4.38018 3.10871 3.98087 3.52746 3.5598C3.94696 3.13872 4.34587 2.87861 4.90575 2.65972C5.32877 2.49447 5.9633 2.29812 7.13281 2.24253C8.39836 2.18264 8.77743 2.16982 11.9808 2.1636C15.1849 2.15737 15.5643 2.16865 16.8303 2.22426C17.9994 2.27518 18.6355 2.46881 19.0581 2.6325C19.6191 2.84945 20.0192 3.10801 20.4399 3.52753C20.8606 3.94705 21.1215 4.34519 21.3404 4.90623C21.5056 5.32808 21.7019 5.96339 21.7572 7.13254C21.8174 8.3981 21.831 8.77757 21.8368 11.9809C21.8431 15.1851 21.8314 15.5646 21.7758 16.8297C21.7249 17.9997 21.5309 18.6354 21.3676 19.0591C21.1506 19.6194 20.8913 20.0195 20.4722 20.4406C20.053 20.8601 19.6541 21.1218 19.0939 21.3407C18.6716 21.5055 18.0363 21.7023 16.8676 21.7579C15.6021 21.8173 15.223 21.8309 12.0185 21.8368C8.81514 21.843 8.43607 21.8309 7.17014 21.7761ZM16.9528 5.58548C16.9543 6.3802 17.6005 7.02368 18.3952 7.02212C19.1903 7.02057 19.8338 6.37476 19.8326 5.58004C19.831 4.78531 19.1848 4.14146 18.3898 4.14302C17.5947 4.14457 16.9512 4.79076 16.9528 5.58548ZM5.8385 12.0117C5.8451 15.4149 8.60909 18.1676 12.0115 18.161C15.4143 18.1544 18.1685 15.3912 18.1619 11.9879C18.1553 8.5859 15.3909 5.83159 11.9878 5.8382C8.58536 5.84481 5.83188 8.60923 5.8385 12.0117ZM7.99983 12.0074C7.99594 9.79858 9.78365 8.00424 11.992 8.00035C14.2008 7.99608 15.9955 9.78302 15.9998 11.9922C16.0041 14.2014 14.2164 15.9954 12.0072 15.9996C9.79882 16.0039 8.0041 14.2166 7.99983 12.0074Z" fill="#000008"/>
</mask>
<g mask="url(#mask0_3414_66658)">
<g id="IG Colors">
<rect id="Gradients" x="-1.00519" y="-1.00482" width="26.13" height="26.13" fill="url(#paint0_radial_3414_66658)"/>
<g id="Gradients_2" filter="url(#filter0_f_3414_66658)">
<ellipse cx="3.88474" cy="-1.99919" rx="15.075" ry="10.5525" transform="rotate(-14.9317 3.88474 -1.99919)" fill="#7334FF"/>
</g>
<g id="Gradients_3" filter="url(#filter1_f_3414_66658)">
<circle cx="24.2872" cy="-0.83733" r="14.2375" fill="#B202F5"/>
</g>
<g id="Gradients_4" filter="url(#filter2_f_3414_66658)">
<circle cx="4.01968" cy="22.4452" r="8.04" fill="#FFB401"/>
</g>
</g>
</g>
</g>
<defs>
<filter id="filter0_f_3414_66658" x="-47.7855" y="-49.7631" width="103.34" height="95.5279" filterUnits="userSpaceOnUse" color-interpolation-filters="sRGB">
<feFlood flood-opacity="0" result="BackgroundImageFix"/>
<feBlend mode="normal" in="SourceGraphic" in2="BackgroundImageFix" result="shape"/>
<feGaussianBlur stdDeviation="18.425" result="effect1_foregroundBlur_3414_66658"/>
</filter>
<filter id="filter1_f_3414_66658" x="-34.617" y="-59.7415" width="117.808" height="117.808" filterUnits="userSpaceOnUse" color-interpolation-filters="sRGB">
<feFlood flood-opacity="0" result="BackgroundImageFix"/>
<feBlend mode="normal" in="SourceGraphic" in2="BackgroundImageFix" result="shape"/>
<feGaussianBlur stdDeviation="22.3333" result="effect1_foregroundBlur_3414_66658"/>
</filter>
<filter id="filter2_f_3414_66658" x="-39.7537" y="-21.3282" width="87.5467" height="87.5467" filterUnits="userSpaceOnUse" color-interpolation-filters="sRGB">
<feFlood flood-opacity="0" result="BackgroundImageFix"/>
<feBlend mode="normal" in="SourceGraphic" in2="BackgroundImageFix" result="shape"/>
<feGaussianBlur stdDeviation="17.8667" result="effect1_foregroundBlur_3414_66658"/>
</filter>
<radialGradient id="paint0_radial_3414_66658" cx="0" cy="0" r="1" gradientUnits="userSpaceOnUse" gradientTransform="translate(9.37981 23.9527) rotate(-61.8868) scale(13.8631)">
<stop stop-color="#FFD502"/>
<stop offset="0.869374" stop-color="#FF1154"/>
</radialGradient>
</defs>
</svg>
