<svg width="29" height="24" viewBox="0 0 29 24" fill="none" xmlns="http://www.w3.org/2000/svg">
<path id="LinkedIn Logomark" d="M27.3118 20.7499C26.8698 20.754 26.4474 20.9281 26.1371 21.2341C25.8268 21.5401 25.6537 21.9531 25.6559 22.3827C25.658 22.8124 25.8351 23.2237 26.1484 23.5268C26.4618 23.8299 26.8859 24 27.3279 24C27.77 24 28.1941 23.8299 28.5074 23.5268C28.8207 23.2237 28.9979 22.8124 29 22.3827C29.0021 21.9531 28.8291 21.5401 28.5188 21.2341C28.2084 20.9281 27.7861 20.754 27.344 20.7499H27.3118ZM27.3118 23.814C27.0219 23.8186 26.737 23.7397 26.4933 23.587C26.2495 23.4344 26.0578 23.2149 25.9424 22.9563C25.827 22.6978 25.793 22.4118 25.8449 22.1345C25.8967 21.8572 26.032 21.601 26.2336 21.3985C26.4352 21.1959 26.6941 21.056 26.9775 20.9964C27.2609 20.9368 27.5562 20.9603 27.8259 21.0638C28.0956 21.1673 28.3277 21.3462 28.4928 21.5779C28.6579 21.8096 28.7486 22.0836 28.7534 22.3654V22.3893C28.7615 22.759 28.6183 23.1167 28.3551 23.3837C28.0919 23.6507 27.7304 23.8052 27.3501 23.8132L27.3118 23.814ZM20.8934 20.3059H17.2601V14.776C17.2601 13.4573 17.2359 11.7597 15.3704 11.7597C13.478 11.7597 13.1885 13.1965 13.1885 14.68V20.3056H9.55521V8.93368H13.0432V10.4878H13.092C13.4411 9.90772 13.9455 9.43054 14.5515 9.10705C15.1575 8.78357 15.8425 8.62589 16.5334 8.65082C20.2159 8.65082 20.8949 11.0049 20.8949 14.0675L20.8934 20.3059ZM5.45563 7.37923C5.03862 7.3793 4.63095 7.25919 4.28417 7.03408C3.9374 6.80897 3.66709 6.48898 3.50744 6.11457C3.34779 5.74015 3.30596 5.32814 3.38724 4.93062C3.46853 4.5331 3.66926 4.16793 3.96408 3.8813C4.2589 3.59466 4.63456 3.39943 5.04354 3.32029C5.45253 3.24115 5.87647 3.28166 6.26177 3.43669C6.64707 3.59172 6.97641 3.85431 7.20815 4.19126C7.43989 4.52821 7.56362 4.92438 7.5637 5.32967C7.56375 5.59877 7.50927 5.86525 7.40335 6.11389C7.29744 6.36252 7.14217 6.58845 6.94642 6.77877C6.75067 6.96909 6.51826 7.12007 6.26247 7.2231C6.00668 7.32613 5.73252 7.37918 5.45563 7.37923ZM7.27228 20.3059H3.63519V8.93368H7.27228V20.3059ZM22.7047 0.00162308H1.80946C1.33519 -0.00357856 0.878207 0.174429 0.538915 0.496528C0.199624 0.818628 0.00578813 1.25847 0 1.7194V22.1116C0.00559002 22.5728 0.199305 23.0129 0.538585 23.3354C0.877866 23.6578 1.33496 23.8361 1.80946 23.8312H22.7047C23.1802 23.837 23.6385 23.6592 23.9792 23.3368C24.3198 23.0143 24.5148 22.5737 24.5214 22.1116V1.71793C24.5146 1.25608 24.3195 0.815744 23.9788 0.493651C23.6382 0.171559 23.1799 -0.00593941 22.7047 0.000151748M27.5771 22.478C27.6394 22.4786 27.7011 22.4668 27.7584 22.4432C27.8157 22.4197 27.8674 22.385 27.9104 22.3412C27.9533 22.2974 27.9865 22.2456 28.008 22.1888C28.0295 22.132 28.0387 22.0716 28.0351 22.0112C28.0351 21.6802 27.8296 21.522 27.408 21.522H26.7267V23.2552H26.983V22.4997H27.2978L27.305 22.5089L27.7936 23.2552H28.0676L27.542 22.4828L27.5771 22.478ZM27.2808 22.3044H26.9837V21.7184H27.3603C27.5548 21.7184 27.7766 21.7493 27.7766 21.9969C27.7766 22.2816 27.5522 22.3044 27.2793 22.3044" fill="#2867B2"/>
</svg>
