<svg width="238" height="46" viewBox="0 0 238 46" fill="none" xmlns="http://www.w3.org/2000/svg">
<g id="SkillboostLogo">
<path id="Vector" d="M5.98322 23.7583C6.0065 29.6619 10.7178 34.5 16.5055 34.5C22.3074 34.5 27.0273 29.6815 27.0273 23.7583V22.2419C27.0273 19.803 28.9711 17.8186 31.3601 17.8186C33.7494 17.8186 35.6929 19.803 35.6929 22.2419C35.6929 22.9398 36.2472 23.5057 36.9309 23.5057H40.6447C41.3286 23.5057 41.8827 22.9398 41.8827 22.2419C41.8827 16.3189 37.1627 11.5 31.3604 11.5C25.5585 11.5 20.8383 16.3189 20.8383 22.2419V23.7583C20.8383 26.1977 18.8944 28.1814 16.5057 28.1814C14.1167 28.1814 12.173 26.1977 12.173 23.7583C12.173 23.0605 11.6186 22.4945 10.935 22.4945H7.22116C6.53754 22.4949 5.98322 23.0605 5.98322 23.7583Z" fill="url(#paint0_linear_4022_1075)"/>
<path id="Vector_2" d="M65.7518 27.3835V23C65.7518 22.6537 65.688 22.4264 65.5603 22.3181C65.4327 22.1882 65.1987 22.1233 64.8583 22.1233H62.2735C60.0824 22.1233 58.9868 21.041 58.9868 18.8762V13.8433C58.9868 11.7002 60.1355 10.6287 62.4331 10.6287H65.9433C68.2408 10.6287 69.3896 11.7002 69.3896 13.8433V16.7007H65.688V14.3628C65.688 14.0165 65.6242 13.7892 65.4965 13.681C65.3689 13.5511 65.1349 13.4861 64.7945 13.4861H63.5819C63.2202 13.4861 62.9756 13.5511 62.8479 13.681C62.7203 13.7892 62.6565 14.0165 62.6565 14.3628V18.4866C62.6565 18.833 62.7203 19.0711 62.8479 19.201C62.9756 19.3092 63.2202 19.3633 63.5819 19.3633H66.1028C68.3366 19.3633 69.4534 20.424 69.4534 22.5454V27.9031C69.4534 30.0461 68.294 31.1177 65.9752 31.1177H62.5288C60.21 31.1177 59.0506 30.0461 59.0506 27.9031V25.0781H62.7203V27.3835C62.7203 27.7299 62.7841 27.968 62.9118 28.0979C63.0394 28.2061 63.2841 28.2603 63.6457 28.2603H64.8583C65.1987 28.2603 65.4327 28.2061 65.5603 28.0979C65.688 27.968 65.7518 27.7299 65.7518 27.3835ZM83.0286 15.1746L79.5184 22.8377L83.0286 31.1177H79.2313L75.8487 22.8377L79.2632 15.1746H83.0286ZM71.9556 31.1177V9.39484H75.5615V31.1177H71.9556ZM84.325 12.577V9.36237H88.1223V12.577H84.325ZM88.0266 31.1177H84.4207V15.1746H88.0266V31.1177ZM94.3839 31.1177H90.778V9.39484H94.3839V31.1177ZM100.741 31.1177H97.1351V9.39484H100.741V31.1177ZM109.332 15.1421H110.289C112.481 15.1421 113.576 16.2137 113.576 18.3567V27.9031C113.576 30.0461 112.481 31.1177 110.289 31.1177H109.332C108.119 31.1177 107.364 30.6306 107.066 29.6565V31.1177H103.492V9.39484H107.098V16.5059C107.417 15.5967 108.162 15.1421 109.332 15.1421ZM109.938 27.3835V18.8762C109.938 18.5299 109.874 18.3026 109.747 18.1944C109.619 18.0645 109.385 17.9995 109.045 17.9995H108.087C107.428 17.9995 107.098 18.3675 107.098 19.1035V27.1887C107.098 27.9031 107.428 28.2603 108.087 28.2603H109.045C109.385 28.2603 109.619 28.2061 109.747 28.0979C109.874 27.968 109.938 27.7299 109.938 27.3835ZM119.306 15.1746H122.912C125.167 15.1746 126.294 16.2461 126.294 18.3892V27.9031C126.294 30.0461 125.167 31.1177 122.912 31.1177H119.306C117.03 31.1177 115.891 30.0461 115.891 27.9031V18.3892C115.891 16.2461 117.03 15.1746 119.306 15.1746ZM122.752 27.481V18.8113C122.752 18.465 122.688 18.2377 122.561 18.1294C122.433 17.9995 122.188 17.9346 121.827 17.9346H120.359C119.997 17.9346 119.753 17.9995 119.625 18.1294C119.497 18.2377 119.433 18.465 119.433 18.8113V27.481C119.433 27.8273 119.497 28.0654 119.625 28.1953C119.753 28.3035 119.997 28.3577 120.359 28.3577H121.827C122.188 28.3577 122.433 28.3035 122.561 28.1953C122.688 28.0654 122.752 27.8273 122.752 27.481ZM132.145 15.1746H135.75C138.005 15.1746 139.133 16.2461 139.133 18.3892V27.9031C139.133 30.0461 138.005 31.1177 135.75 31.1177H132.145C129.869 31.1177 128.73 30.0461 128.73 27.9031V18.3892C128.73 16.2461 129.869 15.1746 132.145 15.1746ZM135.591 27.481V18.8113C135.591 18.465 135.527 18.2377 135.399 18.1294C135.272 17.9995 135.027 17.9346 134.665 17.9346H133.198C132.836 17.9346 132.592 17.9995 132.464 18.1294C132.336 18.2377 132.273 18.465 132.273 18.8113V27.481C132.273 27.8273 132.336 28.0654 132.464 28.1953C132.592 28.3035 132.836 28.3577 133.198 28.3577H134.665C135.027 28.3577 135.272 28.3035 135.399 28.1953C135.527 28.0654 135.591 27.8273 135.591 27.481ZM147.41 27.6108V25.3704C147.41 25.024 147.346 24.7967 147.218 24.6885C147.091 24.5586 146.846 24.4937 146.484 24.4937H144.761C142.485 24.4937 141.347 23.433 141.347 21.3115V18.3892C141.347 16.2461 142.506 15.1746 144.825 15.1746H147.346C149.643 15.1746 150.792 16.2461 150.792 18.3892V19.8828H147.314V18.6814C147.314 18.3351 147.25 18.1078 147.123 17.9995C146.995 17.8697 146.761 17.8047 146.421 17.8047H145.782C145.421 17.8047 145.176 17.8697 145.047 17.9995C144.921 18.1078 144.857 18.3351 144.857 18.6814V21.0193C144.857 21.3657 144.921 21.6038 145.047 21.7337C145.176 21.8419 145.421 21.896 145.782 21.896H147.505C149.803 21.896 150.952 22.9567 150.952 25.0781V27.9031C150.952 30.0461 149.792 31.1177 147.474 31.1177H144.889C142.57 31.1177 141.409 30.0461 141.409 27.9031V26.4419H144.953V27.6108C144.953 27.9572 145.016 28.1953 145.144 28.3252C145.272 28.4334 145.506 28.4875 145.846 28.4875H146.484C146.846 28.4875 147.091 28.4334 147.218 28.3252C147.346 28.1953 147.41 27.9572 147.41 27.6108ZM159.386 18.032H157.248V27.2861C157.248 27.6325 157.311 27.8706 157.439 28.0005C157.567 28.1087 157.811 28.1628 158.173 28.1628H159.354V31.1177H157.12C154.801 31.1177 153.642 30.0461 153.642 27.9031V18.032H152.078V15.1746H153.642V12.3172H157.248V15.1746H159.386V18.032ZM176.912 17.4151H173.211V14.233C173.211 13.8866 173.147 13.6593 173.019 13.5511C172.892 13.4212 172.658 13.3562 172.317 13.3562H170.818C170.477 13.3562 170.243 13.4212 170.115 13.5511C169.988 13.6593 169.924 13.8866 169.924 14.233V27.5459C169.924 27.8923 169.988 28.1304 170.115 28.2603C170.243 28.3685 170.477 28.4226 170.818 28.4226H172.317C172.658 28.4226 172.892 28.3685 173.019 28.2603C173.147 28.1304 173.211 27.8923 173.211 27.5459V24.4287H176.912V27.9355C176.912 30.0786 175.753 31.1501 173.434 31.1501H169.701C167.382 31.1501 166.222 30.0786 166.222 27.9355V13.8433C166.222 11.7002 167.382 10.6287 169.701 10.6287H173.434C175.753 10.6287 176.912 11.7002 176.912 13.8433V17.4151ZM182.662 15.1746H186.044C188.342 15.1746 189.491 16.2461 189.491 18.3892V24.2014H182.694V27.481C182.694 27.8273 182.747 28.0654 182.853 28.1953C182.981 28.3035 183.225 28.3577 183.587 28.3577H185.055C185.395 28.3577 185.629 28.3035 185.757 28.1953C185.885 28.0654 185.948 27.8273 185.948 27.481V26.2795H189.459V27.9031C189.459 30.0461 188.299 31.1177 185.98 31.1177H182.662C180.343 31.1177 179.183 30.0461 179.183 27.9031V18.3892C179.183 16.2461 180.343 15.1746 182.662 15.1746ZM182.694 21.8311H186.012V18.7788C186.012 18.4325 185.948 18.2052 185.821 18.097C185.693 17.9671 185.459 17.9021 185.119 17.9021H183.587C183.247 17.9021 183.013 17.9671 182.885 18.097C182.757 18.2052 182.694 18.4325 182.694 18.7788V21.8311ZM197.678 15.1746H198.636C200.827 15.1746 201.922 16.2461 201.922 18.3892V31.1177H198.285V18.9087C198.285 18.5624 198.221 18.3351 198.093 18.2268C197.965 18.097 197.731 18.032 197.391 18.032H196.434C195.774 18.032 195.445 18.3892 195.445 19.1035V31.1177H191.839V15.1746H195.413V16.6358C195.71 15.6617 196.466 15.1746 197.678 15.1746ZM210.679 18.032H208.541V27.2861C208.541 27.6325 208.605 27.8706 208.733 28.0005C208.86 28.1087 209.105 28.1628 209.467 28.1628H210.647V31.1177H208.414C206.095 31.1177 204.935 30.0461 204.935 27.9031V18.032H203.372V15.1746H204.935V12.3172H208.541V15.1746H210.679V18.032ZM215.693 15.1746H219.076C221.373 15.1746 222.522 16.2461 222.522 18.3892V24.2014H215.725V27.481C215.725 27.8273 215.778 28.0654 215.885 28.1953C216.012 28.3035 216.257 28.3577 216.619 28.3577H218.086C218.427 28.3577 218.661 28.3035 218.788 28.1953C218.916 28.0654 218.98 27.8273 218.98 27.481V26.2795H222.49V27.9031C222.49 30.0461 221.331 31.1177 219.012 31.1177H215.693C213.374 31.1177 212.215 30.0461 212.215 27.9031V18.3892C212.215 16.2461 213.374 15.1746 215.693 15.1746ZM215.725 21.8311H219.044V18.7788C219.044 18.4325 218.98 18.2052 218.852 18.097C218.725 17.9671 218.491 17.9021 218.15 17.9021H216.619C216.278 17.9021 216.044 17.9671 215.917 18.097C215.789 18.2052 215.725 18.4325 215.725 18.7788V21.8311ZM231.254 15.1097H231.828V18.2918H230.488C229.147 18.2918 228.477 19.0711 228.477 20.6297V31.1177H224.871V15.1746H228.445V17.2202C228.616 16.5925 228.945 16.0838 229.435 15.6941C229.924 15.3045 230.53 15.1097 231.254 15.1097Z" fill="url(#paint1_linear_4022_1075)"/>
</g>
<defs>
<linearGradient id="paint0_linear_4022_1075" x1="23.9329" y1="11.5" x2="23.9329" y2="34.5" gradientUnits="userSpaceOnUse">
<stop stop-color="#B924FF"/>
<stop offset="1" stop-color="#5200FF"/>
</linearGradient>
<linearGradient id="paint1_linear_4022_1075" x1="144.927" y1="1.21584e-05" x2="144.927" y2="46" gradientUnits="userSpaceOnUse">
<stop stop-color="#B924FF"/>
<stop offset="1" stop-color="#5200FF"/>
</linearGradient>
</defs>
</svg>
