<svg width="609" height="636" viewBox="0 0 609 636" fill="none" xmlns="http://www.w3.org/2000/svg">
<path d="M292.794 511.579C424.737 511.579 531.697 503.855 531.697 494.328C531.697 484.8 424.737 477.076 292.794 477.076C160.851 477.076 53.8906 484.8 53.8906 494.328C53.8906 503.855 160.851 511.579 292.794 511.579Z" fill="#EEEBFF"/>
<path d="M303.475 577.485C463.387 577.485 593.021 559.802 593.021 537.988C593.021 516.174 463.387 498.49 303.475 498.49C143.564 498.49 13.9297 516.174 13.9297 537.988C13.9297 559.802 143.564 577.485 303.475 577.485Z" fill="#EEEBFF"/>
<path d="M515.174 383.508C515.174 383.508 538.582 381.714 538.278 411.135C538.004 437.363 519.618 438.788 515.63 438.788C515.143 438.788 514.87 438.769 514.87 438.769H336.422V429.509H514.566C514.566 429.509 527.17 426.825 527.638 412.184C528.246 393.066 513.35 393.066 513.35 393.066H336.422V383.508H515.174Z" fill="#6F3EFC"/>
<path d="M537.289 490.781C537.623 490.781 537.897 491.067 537.897 491.417C537.897 491.767 537.623 492.053 537.289 492.053V490.781ZM537.289 497.351C537.623 497.351 537.897 497.637 537.897 497.987C537.897 498.337 537.623 498.623 537.289 498.623V497.351ZM537.289 504.773C537.623 504.773 537.897 505.059 537.897 505.409C537.897 505.759 537.623 506.045 537.289 506.045V504.773Z" fill="black"/>
<path d="M537.29 506.046V515.236H344.116C344.116 515.236 330.084 512.768 329.567 499.317C328.892 481.744 345.466 481.744 345.466 481.744H537.29V490.782H343.004C342.669 490.782 342.396 491.068 342.396 491.418C342.396 491.767 342.669 492.054 343.004 492.054H537.29V497.352H354.556C354.221 497.352 353.948 497.638 353.948 497.988C353.948 498.337 354.221 498.624 354.556 498.624H537.29V504.774H383.74C383.405 504.774 383.132 505.06 383.132 505.41C383.132 505.759 383.405 506.046 383.74 506.046H537.29Z" fill="#EEEBFF"/>
<path d="M537.293 505.409V506.045H383.742C383.408 506.045 383.134 505.759 383.134 505.409C383.134 505.059 383.408 504.773 383.742 504.773H537.293V505.409ZM537.293 497.987V498.623H354.558C354.224 498.623 353.95 498.337 353.95 497.987C353.95 497.637 354.224 497.351 354.558 497.351H537.293V497.987ZM537.293 492.053H343.006C342.672 492.053 342.398 491.767 342.398 491.417C342.398 491.067 342.672 490.781 343.006 490.781H537.293V492.053Z" fill="black"/>
<path d="M513.348 393.066C513.348 393.066 528.244 393.066 527.636 412.185C527.168 426.826 514.564 429.509 514.564 429.509H340.992V420.605H506.557C506.891 420.605 507.165 420.319 507.165 419.969C507.165 419.619 506.891 419.333 506.557 419.333H340.992V411.771H488.116C488.45 411.771 488.724 411.485 488.724 411.135C488.724 410.785 488.45 410.499 488.116 410.499H340.992V402.377H493.588C493.922 402.377 494.196 402.091 494.196 401.741C494.196 401.392 493.922 401.105 493.588 401.105H340.992V393.066H513.348Z" fill="#EEEBFF"/>
<path d="M517.603 438.789C517.603 438.789 523.075 456.095 517.603 472.224L463.188 472.554V438.789H517.603Z" fill="#CFA9FF"/>
<path d="M506.557 419.333C506.891 419.333 507.165 419.619 507.165 419.969C507.165 420.319 506.891 420.605 506.557 420.605H340.992V419.333H506.557ZM493.588 401.105C493.922 401.105 494.196 401.392 494.196 401.741C494.196 402.091 493.922 402.377 493.588 402.377H340.992V401.105H493.588ZM488.116 410.499C488.45 410.499 488.724 410.785 488.724 411.135C488.724 411.485 488.45 411.771 488.116 411.771H340.992V410.499H488.116Z" fill="black"/>
<path d="M463.189 438.789V472.554L395.494 472.961H374.828V438.789H463.189Z" fill="white"/>
<path d="M455.59 383.482V383.508H336.422V390.504H315.75V298.92H455.59V383.482ZM422.454 348.738V329.448H397.727V348.738H422.454ZM369.558 360.046V322.662H328.518V360.046H369.558Z" fill="#CFA9FF"/>
<path d="M397.727 329.447H422.454V348.737H397.727V329.447Z" fill="white"/>
<path d="M374.825 472.942V472.961H343.434C343.434 472.961 341.178 472.821 338.004 473.311L319.698 473.419C319.698 473.419 314.226 456.692 319.698 438.789H374.825V472.942Z" fill="#CFA9FF"/>
<path d="M328.516 322.662H369.556V360.046H328.516V322.662Z" fill="white"/>
<path d="M340.991 419.969V420.605C340.656 420.605 340.383 420.319 340.383 419.969C340.383 419.619 340.656 419.333 340.991 419.333V419.969ZM340.991 411.135V411.771C340.656 411.771 340.383 411.485 340.383 411.135C340.383 410.785 340.656 410.499 340.991 410.499V411.135ZM340.991 401.741V402.377C340.656 402.377 340.383 402.091 340.383 401.741C340.383 401.392 340.656 401.105 340.991 401.105V401.741Z" fill="black"/>
<path d="M329.566 499.317C330.083 512.768 344.115 515.236 344.115 515.236H542.378V523.746H343.775C343.775 523.746 318.062 525.393 317.722 498.356C317.485 479.27 330.393 474.475 338.005 473.311L395.491 472.961H542.378V481.744H345.465C345.465 481.744 328.891 481.744 329.566 499.317Z" fill="#5B29C5"/>
<path d="M227.464 265.848V347.046H103.25V265.848H227.464ZM204.154 304.644V287.084H174.587V304.644H204.154ZM154.322 313.122V296.166H141.755V283.656H116.219V298.92H128.987V313.122H154.322Z" fill="#EEEBFF"/>
<path d="M174.586 287.084H204.153V304.644H174.586V287.084Z" fill="white"/>
<path d="M165.363 449.226L160 491.418H103.256L97.9844 449.226H109.889C109.956 449.378 109.992 449.467 109.992 449.474C110.046 449.61 110.144 449.722 110.268 449.791C110.392 449.86 110.536 449.882 110.674 449.853C110.812 449.824 110.936 449.745 111.024 449.631C111.113 449.516 111.161 449.373 111.16 449.226H128.384V449.245C128.39 449.588 128.664 449.862 128.992 449.862H129.011C129.339 449.855 129.594 449.576 129.6 449.226H143.584V449.232C143.586 449.4 143.651 449.56 143.765 449.678C143.878 449.796 144.032 449.862 144.192 449.862H144.198C144.533 449.855 144.806 449.569 144.8 449.226H165.363ZM154.328 296.166V313.122H128.992V298.92H141.76V296.166H154.328Z" fill="#CFA9FF"/>
<path d="M151.79 421.636C151.718 421.776 151.645 421.909 151.572 422.049C151.456 421.82 151.353 421.585 151.255 421.33C151.195 421.165 151.14 420.993 151.085 420.821L150.891 420.808C150.891 420.776 150.897 420.744 150.897 420.707C155.59 411.955 162.248 405.378 170.681 401.168C170.753 401.132 170.831 401.111 170.91 401.106C170.99 401.102 171.07 401.114 171.145 401.142C171.22 401.17 171.289 401.213 171.348 401.269C171.408 401.325 171.456 401.392 171.49 401.468C171.636 401.786 171.508 402.161 171.204 402.313C162.899 406.461 156.369 412.967 151.79 421.636Z" fill="black"/>
<path d="M150.892 420.707C150.989 418.15 149.469 415.155 149.251 412.559C148.928 408.757 149.05 403.637 150.412 400.088C152.807 393.854 159.094 388.239 165.66 388.169C167.74 388.15 170.366 388.672 172.361 388.182C175.613 387.381 175.996 384.322 176.854 381.644C178.884 375.271 188.789 375.183 192.029 380.379C194.297 384.017 195.477 389.022 194.407 393.315C193.446 397.17 189.774 402.894 186.6 405.132C182.496 408.026 177.152 406.805 173.212 410.207C171.412 411.758 170.342 415.041 170.731 417.47C171.199 420.345 173.346 422.386 173.577 425.478C174.051 431.983 166.651 432.582 161.976 431.361C159.197 430.635 157.72 428.67 155.744 426.75C154.029 425.083 152.503 423.938 151.567 422.049C151.64 421.909 151.713 421.775 151.786 421.636C156.364 412.967 162.894 406.461 171.199 402.314C171.503 402.162 171.631 401.787 171.485 401.469C171.451 401.393 171.403 401.326 171.344 401.27C171.285 401.214 171.216 401.171 171.14 401.143C171.065 401.115 170.986 401.103 170.906 401.107C170.826 401.112 170.748 401.133 170.676 401.169C162.243 405.379 155.586 411.956 150.892 420.707Z" fill="#CFA9FF"/>
<path d="M143.578 449.225C143.578 448.971 143.517 434.655 150.716 421.025C150.771 420.917 150.832 420.809 150.892 420.707C150.892 420.745 150.886 420.776 150.886 420.809L151.081 420.822C151.136 420.994 151.19 421.165 151.251 421.33C151.348 421.585 151.452 421.821 151.567 422.049C144.715 435.31 144.794 449.079 144.794 449.22V449.226L143.578 449.225Z" fill="black"/>
<path d="M144.186 449.227H144.794C144.8 449.57 144.527 449.856 144.192 449.863H144.186C144.026 449.863 143.872 449.796 143.758 449.679C143.644 449.561 143.58 449.401 143.578 449.233V449.227H144.186Z" fill="black"/>
<path d="M140.953 403.389C144.923 406.397 145.398 412.439 142.826 416.789C139.986 421.591 132.909 427.512 127.121 425.744C127.115 425.68 127.103 425.617 127.091 425.553C124.16 408.127 117.697 385.16 103.604 374.717C103.33 374.52 102.947 374.583 102.752 374.87C102.558 375.156 102.625 375.557 102.898 375.76C116.615 385.917 122.962 408.444 125.875 425.616C118.597 425.133 110.827 423.136 104.06 420.554C99.7428 418.906 94.289 415.256 94.7329 409.748C94.9822 406.658 97.1831 404.717 99.4023 403.013C101.111 401.696 102.929 400.214 102.242 397.658C101.542 395.056 98.4964 394.853 96.3501 393.899C93.3041 392.544 90.1668 390.846 88.0935 388.124C82.7735 381.122 83.4788 372.396 90.4829 367.13C96.6663 362.487 104.163 361.87 111.155 364.624C117.588 367.168 125.765 373.109 125.747 380.798C125.735 386.636 123.315 391.184 128.021 395.801C131.797 399.503 136.843 400.272 140.953 403.389Z" fill="#6F3EFC"/>
<path d="M141.755 296.166V298.92H116.219V283.656H141.755V296.166Z" fill="white"/>
<path d="M128.986 449.226H129.594C129.588 449.575 129.333 449.855 129.004 449.862H128.986C128.658 449.862 128.384 449.588 128.378 449.245V449.226H128.986ZM128.378 449.226C128.366 448.704 128.044 438.515 125.898 425.77C125.891 425.719 125.879 425.668 125.873 425.617C126.08 425.636 126.287 425.649 126.493 425.662C126.651 425.68 126.803 425.687 126.962 425.694C127.016 425.713 127.065 425.725 127.12 425.744C129.308 438.769 129.594 449.104 129.594 449.206V449.226H128.378ZM110.546 449.226H111.154C111.154 449.309 111.138 449.392 111.108 449.469C111.077 449.546 111.032 449.617 110.976 449.676C110.919 449.735 110.852 449.782 110.778 449.813C110.705 449.845 110.625 449.862 110.546 449.862C110.308 449.862 110.083 449.715 109.986 449.474C109.986 449.467 109.95 449.379 109.883 449.226H110.546Z" fill="black"/>
<path d="M102.897 375.762C102.623 375.559 102.556 375.158 102.751 374.872C102.945 374.586 103.329 374.522 103.602 374.719C117.696 385.163 124.159 408.129 127.089 425.556C127.101 425.619 127.113 425.682 127.12 425.746C127.065 425.727 127.016 425.715 126.961 425.695C126.803 425.689 126.651 425.682 126.493 425.664C126.287 425.65 126.08 425.638 125.873 425.619C122.961 408.447 116.613 385.919 102.897 375.762ZM99.8082 435.667C99.9359 435.508 100.051 435.331 100.155 435.146C100.161 435.153 100.173 435.159 100.179 435.165L100.301 435.26C100.404 435.349 100.513 435.432 100.617 435.527C108.162 441.767 110.989 448.693 111.105 448.979C111.141 449.061 111.153 449.144 111.153 449.227H109.883C109.305 447.955 106.368 441.906 99.8447 436.507C99.8143 436.481 99.7899 436.456 99.7656 436.443C99.8447 436.392 99.9237 436.341 100.009 436.297L100.222 436.011C100.088 435.89 99.948 435.782 99.8082 435.667Z" fill="black"/>
<path d="M99.4333 436.17L99.5549 436.265C99.6218 436.322 99.6887 436.373 99.7677 436.443C97.5546 437.747 96.2292 438.784 93.5236 439.42C90.1249 440.221 86.6653 440.284 83.1815 440.323C77.4967 440.386 72.7786 438.631 67.9876 435.705C63.5796 433.015 59.1594 428.633 58.3082 422.96C57.3354 416.505 63.2634 408.993 69.9818 410.627C71.8605 411.086 72.2314 413.197 73.1069 414.672C74.1041 416.358 75.0343 416.803 76.9556 417.006C81.9655 417.528 86.3066 413.489 91.4989 415.512C96.0711 417.286 99.5124 422.024 100.467 426.927C100.905 429.172 101.391 432.944 100.157 435.145C94.618 430.693 88.0516 427.806 80.6522 426.552C80.3178 426.495 80.0077 426.736 79.953 427.08C79.8983 427.43 80.1293 427.755 80.4577 427.811C87.6685 429.027 94.0586 431.838 99.4333 436.17Z" fill="#5B29C5"/>
<path d="M99.5553 436.265L99.4337 436.17C94.0589 431.838 87.6689 429.028 80.458 427.813C80.1297 427.755 79.8986 427.43 79.9533 427.081C80.0081 426.738 80.3182 426.496 80.6526 426.553C88.0519 427.807 94.6183 430.694 100.157 435.146C100.054 435.331 99.9383 435.508 99.8106 435.667C99.9505 435.782 100.09 435.89 100.224 436.011L100.011 436.297C99.9261 436.341 99.8471 436.392 99.7681 436.443C99.689 436.373 99.6221 436.322 99.5553 436.265Z" fill="black"/>
<path d="M472.143 181.26L469.711 192.708L428.367 181.26H472.143ZM450.419 120.84L428.227 132.924L442.515 115.898L450.419 120.84ZM430.051 244.644L423.971 251.538L407.251 221.169L430.051 244.644ZM414.547 76.0021L390.531 106.212L402.083 70.9141L414.547 76.0021Z" fill="#7A29E2"/>
<path d="M350.275 217.022V217.098C350.275 217.448 350.548 217.728 350.883 217.728C351.193 217.728 351.454 217.48 351.485 217.162C354.689 217.55 357.655 217.988 360.386 218.465C360.38 218.504 360.374 218.535 360.374 218.573C360.374 218.923 360.647 219.209 360.982 219.209C361.279 219.209 361.528 218.981 361.577 218.682V218.675C371.268 220.431 377.817 222.536 381.24 223.808C383.131 224.514 384.073 224.965 384.073 224.965L380.267 234.206C379.622 234.009 378.978 233.812 378.333 233.628C356.002 227.109 335.232 226.911 328.502 227.051C327.036 227.083 326.234 227.128 326.234 227.128L325.547 215.68C326.994 215.68 328.411 215.692 329.797 215.718C337.434 215.851 344.256 216.341 350.275 217.022Z" fill="#CFA9FF"/>
<path d="M369.211 174.601C370.16 171.904 371.053 169.92 371.881 168.699C373.145 166.822 375.45 165.703 378.051 165.703C380.319 165.703 382.198 166.574 382.514 167.789C382.825 168.966 381.609 170.511 379.177 172.019C376.501 173.679 373.151 174.55 369.211 174.601Z" fill="#FFC962"/>
<path d="M371.876 168.699C371.049 169.92 370.156 171.905 369.207 174.601C373.146 174.55 376.496 173.679 379.172 172.019C381.604 170.512 382.82 168.966 382.51 167.79C382.193 166.575 380.315 165.704 378.047 165.704C375.445 165.704 373.141 166.823 371.876 168.699ZM368.544 174.639C369.462 171.994 370.423 169.749 371.378 168.33C375.84 161.703 389.721 166.206 379.482 172.566C376.454 174.442 372.782 175.225 368.952 175.244C368.952 175.155 368.94 175.066 368.903 174.989C368.888 174.951 368.87 174.915 368.848 174.881C368.827 174.845 368.801 174.813 368.769 174.786C368.744 174.759 368.715 174.735 368.684 174.716C368.661 174.697 368.637 174.68 368.611 174.665C368.587 174.659 368.569 174.646 368.544 174.639ZM368.897 175.498C368.854 175.625 368.812 175.752 368.775 175.88C368.63 175.88 368.49 175.873 368.344 175.873C368.593 175.873 368.806 175.721 368.897 175.498Z" fill="black"/>
<path d="M368.852 174.881C368.876 174.919 368.894 174.957 368.906 174.989C368.894 174.95 368.876 174.913 368.852 174.881Z" fill="black"/>
<path d="M368.848 174.88C368.873 174.912 368.891 174.95 368.903 174.988C368.94 175.065 368.952 175.154 368.952 175.243C368.751 175.243 368.544 175.243 368.344 175.237C368.411 175.033 368.478 174.836 368.544 174.639C368.569 174.645 368.587 174.658 368.611 174.664C368.636 174.677 368.666 174.696 368.684 174.715C368.715 174.734 368.745 174.76 368.769 174.785C368.8 174.81 368.83 174.849 368.848 174.88Z" fill="black"/>
<path d="M367.93 174.589C368.975 171.529 369.942 169.361 370.884 167.961C372.374 165.748 375.055 164.432 378.052 164.432C380.953 164.432 383.214 165.64 383.689 167.453C384.023 168.725 383.616 170.741 379.798 173.113C376.844 174.945 373.147 175.88 368.817 175.88H368.78C368.817 175.752 368.859 175.625 368.902 175.498C368.939 175.422 368.957 175.333 368.957 175.244C372.787 175.225 376.459 174.442 379.487 172.566C389.726 166.206 375.845 161.703 371.383 168.33C370.428 169.749 369.467 171.994 368.549 174.639C368.503 174.618 368.454 174.608 368.403 174.608C368.397 174.601 368.391 174.601 368.386 174.601H368.343C368.203 174.601 368.07 174.595 367.93 174.589Z" fill="black"/>
<path d="M368.817 175.88C373.146 175.88 376.842 174.945 379.797 173.114C383.616 170.741 384.023 168.725 383.689 167.453C383.214 165.641 380.953 164.432 378.052 164.432C375.054 164.432 372.373 165.749 370.883 167.962C369.941 169.361 368.974 171.53 367.929 174.589C363.435 174.449 358.311 173.26 353.738 171.269C353.568 166.245 353.289 163.205 352.905 161.977C352.273 159.993 350.363 158.702 348.041 158.702C346.4 158.702 344.916 159.389 344.065 160.527C343.512 161.271 342.953 162.575 343.433 164.547C344.01 166.906 347.488 169.8 352.553 172.121C352.85 181.496 352.729 194.451 352.692 197.593L350.959 197.377C350.874 197.366 350.788 197.374 350.706 197.4C350.625 197.426 350.549 197.47 350.485 197.53C350.42 197.589 350.367 197.662 350.331 197.744C350.296 197.827 350.278 197.916 350.278 198.007V210.631C341.146 207.985 333.096 203.165 326.822 196.855C317.69 187.665 312.327 175.333 312.874 162.003C313.981 135.252 338.501 114.64 367.649 115.956C396.791 117.273 419.523 140.029 418.417 166.773C417.651 185.299 405.656 200.881 388.667 208.272C381.129 211.56 372.604 213.226 363.649 212.819C363.345 212.806 363.041 212.787 362.737 212.768L365.272 199.832C365.309 199.66 365.266 199.476 365.169 199.329C365.12 199.259 365.057 199.2 364.985 199.156C364.913 199.112 364.832 199.085 364.749 199.075L363.187 198.884C363.74 195.984 366.038 184.231 368.78 175.88H368.817Z" fill="#FFC962"/>
<path d="M368.683 174.716C368.662 174.695 368.637 174.678 368.611 174.665C368.635 174.678 368.659 174.697 368.683 174.716ZM368.343 175.238C368.544 175.244 368.75 175.244 368.951 175.244C368.951 175.333 368.933 175.422 368.896 175.498C368.805 175.721 368.592 175.874 368.343 175.874H368.337C368.27 175.874 368.209 175.861 368.148 175.835C368.209 175.632 368.276 175.435 368.343 175.238Z" fill="black"/>
<path d="M368.336 174.602H368.379C368.386 174.602 368.392 174.602 368.397 174.608C368.447 174.608 368.497 174.619 368.543 174.64C368.477 174.837 368.409 175.034 368.342 175.238C368.142 175.238 367.941 175.231 367.734 175.218C367.734 175.155 367.747 175.091 367.771 175.028L367.808 174.932C367.917 174.729 368.123 174.602 368.336 174.602Z" fill="black"/>
<path d="M368.338 174.601C368.125 174.601 367.918 174.728 367.809 174.931C367.846 174.817 367.882 174.696 367.924 174.588C368.064 174.594 368.198 174.601 368.338 174.601ZM368.338 175.873C368.271 175.873 368.204 175.873 368.137 175.866C368.143 175.854 368.143 175.841 368.15 175.834C368.21 175.86 368.271 175.873 368.338 175.873ZM368.344 175.237C368.278 175.434 368.21 175.631 368.15 175.834C368.026 175.795 367.918 175.712 367.846 175.599C367.769 175.489 367.73 175.354 367.736 175.218C367.943 175.23 368.143 175.237 368.344 175.237ZM367.772 175.027C367.748 175.09 367.735 175.154 367.735 175.218H367.711C367.73 175.154 367.754 175.09 367.772 175.027Z" fill="black"/>
<path d="M367.849 175.6C367.921 175.715 368.031 175.798 368.153 175.836C368.146 175.842 368.146 175.855 368.14 175.867C367.933 175.867 367.721 175.861 367.508 175.848C367.575 175.632 367.642 175.422 367.715 175.219H367.739C367.733 175.355 367.772 175.49 367.849 175.6Z" fill="black"/>
<path d="M367.504 175.848C364.756 184.339 362.482 196.028 361.972 198.731L353.903 197.739C353.933 194.896 354.061 182.151 353.781 172.668C358.275 174.551 363.078 175.664 367.504 175.848ZM362.732 212.768C363.036 212.787 363.34 212.806 363.644 212.819C372.599 213.226 381.124 211.559 388.662 208.271V208.278L381.239 223.809C377.815 222.537 371.268 220.432 361.576 218.676L362.732 212.768Z" fill="#FFC962"/>
<path d="M365.268 199.83L362.733 212.767L362.125 212.729L364.672 199.703L363.073 199.506C363.086 199.417 363.128 199.207 363.183 198.883L364.745 199.074C364.916 199.093 365.068 199.188 365.165 199.328C365.262 199.474 365.305 199.659 365.268 199.83Z" fill="black"/>
<path d="M363.943 200.257L361.511 212.678C358.13 212.411 354.778 211.836 351.492 210.961V198.725L353.164 198.928L362.467 200.073L363.943 200.257Z" fill="#FFC962"/>
<path d="M363.628 270.458C365.604 270.776 365.148 275.705 359.068 281.27C352.988 286.835 342.208 288.756 338.019 290.499C335.472 288.33 331.902 285.665 329.805 284.126C329.805 284.126 336.268 265.847 338.092 267.596C339.916 269.345 339.612 276.818 339.612 276.818C339.612 276.818 361.652 270.14 363.628 270.458Z" fill="#FFC6B3"/>
<path d="M368.778 175.88C366.036 184.231 363.738 195.984 363.185 198.884L362.583 198.808C363.112 196.009 365.386 184.332 368.141 175.867C368.207 175.874 368.274 175.874 368.341 175.874H368.347C368.493 175.874 368.632 175.88 368.778 175.88ZM361.513 212.679L363.945 200.258L362.467 200.073V200.067C362.753 200.067 363.009 199.857 363.063 199.552C363.063 199.545 363.069 199.533 363.075 199.507L364.674 199.704L362.127 212.73C361.92 212.717 361.713 212.698 361.513 212.679ZM362.735 212.768L361.58 218.676C361.385 218.638 361.185 218.606 360.984 218.568L362.127 212.73L362.735 212.768Z" fill="black"/>
<path d="M361.977 198.731C362.487 196.028 364.761 184.338 367.509 175.848C367.723 175.86 367.935 175.867 368.142 175.867C365.387 184.332 363.114 196.009 362.585 198.807L361.977 198.731ZM363.186 198.884C363.132 199.208 363.09 199.418 363.077 199.507L362.469 199.431C362.469 199.431 362.512 199.214 362.585 198.807L363.186 198.884Z" fill="black"/>
<path d="M361.873 199.309C361.873 199.29 361.91 199.093 361.977 198.73L362.585 198.807C362.512 199.214 362.469 199.43 362.469 199.43L361.867 199.354C361.867 199.341 361.873 199.322 361.873 199.309Z" fill="black"/>
<path d="M362.355 200.053C362.204 200.024 362.069 199.935 361.978 199.805C361.887 199.675 361.848 199.513 361.868 199.354L362.47 199.43L363.078 199.506C363.072 199.532 363.066 199.545 363.066 199.551C363.039 199.696 362.966 199.827 362.857 199.921C362.748 200.015 362.611 200.066 362.47 200.066C362.434 200.066 362.398 200.06 362.355 200.053ZM361.516 212.678C361.717 212.697 361.924 212.716 362.131 212.729L360.988 218.567C360.793 218.535 360.593 218.497 360.392 218.466V218.44L361.516 212.678ZM353.91 197.738L361.979 198.73C361.912 199.093 361.875 199.29 361.875 199.309C361.875 199.322 361.868 199.341 361.868 199.354L353.898 198.381C353.905 198.362 353.904 198.336 353.904 198.311C353.904 198.292 353.904 198.094 353.91 197.738Z" fill="black"/>
<path d="M351.491 210.961C354.713 211.82 358.064 212.405 361.51 212.678L360.386 218.44V218.466C357.656 217.989 354.689 217.55 351.484 217.162C351.49 217.143 351.49 217.117 351.49 217.092L351.491 210.961Z" fill="#FFC962"/>
<path d="M360.982 218.567C361.182 218.605 361.382 218.637 361.577 218.675V218.681C361.528 218.98 361.279 219.209 360.982 219.209C360.647 219.209 360.374 218.923 360.374 218.573C360.374 218.535 360.38 218.503 360.386 218.465C360.587 218.497 360.787 218.535 360.982 218.567ZM353.734 171.268C358.307 173.258 363.431 174.448 367.925 174.587C367.883 174.696 367.846 174.816 367.81 174.931L367.773 175.026C367.755 175.09 367.731 175.154 367.712 175.217C362.89 175.045 357.905 173.735 353.765 171.967C353.758 171.878 353.758 171.789 353.752 171.7V171.681L353.734 171.268Z" fill="black"/>
<path d="M353.763 171.969C357.904 173.737 362.889 175.047 367.71 175.219C367.637 175.422 367.571 175.632 367.504 175.848C363.077 175.664 358.274 174.551 353.781 172.668L353.763 171.969ZM353.897 198.312C353.897 198.337 353.897 198.363 353.891 198.382L353.289 198.305C353.289 198.305 353.295 198.077 353.295 197.663L353.903 197.739C353.897 198.096 353.897 198.293 353.897 198.312Z" fill="black"/>
<path d="M353.3 197.662C353.337 194.673 353.464 181.883 353.172 172.4C353.379 172.489 353.586 172.578 353.786 172.667C354.066 182.15 353.938 194.896 353.908 197.739L353.3 197.662Z" fill="black"/>
<path d="M353.784 172.668C353.584 172.579 353.377 172.49 353.17 172.401C353.17 172.376 353.164 172.357 353.164 172.338C353.28 172.331 353.395 172.293 353.492 172.223C353.59 172.153 353.663 172.058 353.705 171.943C353.723 171.956 353.742 171.962 353.767 171.969L353.784 172.668Z" fill="black"/>
<path d="M353.709 171.943C353.74 171.866 353.758 171.784 353.758 171.701C353.764 171.79 353.764 171.879 353.771 171.968C353.749 171.964 353.728 171.955 353.709 171.943ZM353.74 171.268L353.757 171.682C353.751 171.421 353.575 171.205 353.363 171.109C353.369 171.109 353.38 171.109 353.387 171.116C353.503 171.167 353.624 171.217 353.74 171.268ZM353.15 171.701C353.332 171.784 353.521 171.866 353.709 171.943C353.667 172.057 353.594 172.152 353.496 172.222C353.399 172.292 353.284 172.33 353.168 172.337L353.15 171.701ZM353.302 197.662C353.302 198.076 353.296 198.305 353.296 198.305L352.688 198.228C352.688 198.127 352.694 197.91 352.694 197.592L353.302 197.662ZM362.471 200.073L353.168 198.928C353.205 198.934 353.247 198.941 353.29 198.941H353.296C353.606 198.941 353.861 198.699 353.898 198.381L361.868 199.354C361.826 199.685 362.038 199.99 362.355 200.054C362.397 200.06 362.434 200.066 362.47 200.066V200.073H362.471ZM352.694 197.592C352.731 194.451 352.852 181.495 352.555 172.121C352.67 172.178 352.792 172.229 352.913 172.286C352.999 172.324 353.09 172.362 353.175 172.4C353.467 181.883 353.339 194.673 353.302 197.662L352.694 197.592Z" fill="black"/>
<path d="M353.119 171.066C353.198 171.059 353.284 171.078 353.357 171.11C353.57 171.206 353.746 171.422 353.751 171.683V171.702C353.751 171.784 353.734 171.867 353.703 171.943C353.514 171.867 353.326 171.784 353.143 171.702C353.137 171.485 353.131 171.276 353.119 171.066ZM353.168 172.401C353.083 172.363 352.991 172.325 352.906 172.287C352.979 172.319 353.064 172.338 353.143 172.338H353.162C353.162 172.357 353.168 172.376 353.168 172.401Z" fill="black"/>
<path d="M353.145 171.7C352.957 171.618 352.775 171.529 352.586 171.446C352.632 171.336 352.706 171.242 352.801 171.175C352.895 171.107 353.006 171.069 353.121 171.064C353.133 171.274 353.139 171.484 353.145 171.7Z" fill="black"/>
<path d="M353.001 171.084C352.963 171.091 352.926 171.104 352.892 171.122C352.928 171.109 352.965 171.09 353.001 171.084ZM352.91 172.286C352.803 172.24 352.711 172.163 352.645 172.064C352.58 171.964 352.543 171.847 352.539 171.726C352.539 171.675 352.539 171.625 352.552 171.574C352.558 171.529 352.569 171.491 352.588 171.453V171.447C352.777 171.529 352.959 171.618 353.148 171.701C353.154 171.911 353.16 172.121 353.166 172.337H353.148C353.068 172.337 352.983 172.318 352.91 172.286ZM352.685 198.228L353.293 198.305L353.895 198.381C353.858 198.699 353.603 198.941 353.293 198.941H353.287C353.207 198.94 353.128 198.923 353.054 198.89C352.981 198.858 352.914 198.81 352.858 198.75C352.802 198.691 352.758 198.62 352.729 198.542C352.699 198.465 352.684 198.382 352.685 198.298V198.228Z" fill="black"/>
<path d="M352.539 171.727C352.545 171.968 352.685 172.184 352.91 172.286C352.788 172.229 352.667 172.178 352.551 172.121C352.545 171.987 352.545 171.854 352.539 171.727Z" fill="black"/>
<path d="M352.505 170.708C348.187 168.635 345.063 166.091 344.613 164.227C344.327 163.045 344.467 162.065 345.027 161.308C345.647 160.475 346.778 159.973 348.042 159.973C349.398 159.973 351.186 160.602 351.751 162.377C351.982 163.108 352.292 165.156 352.505 170.708Z" fill="#FFC962"/>
<path d="M350.883 198.006L352.683 198.228V198.298C352.676 198.604 352.883 198.864 353.163 198.928L351.491 198.725V210.961C351.284 210.91 351.083 210.859 350.883 210.802V198.006Z" fill="black"/>
<path d="M350.881 217.093V210.803C351.082 210.86 351.283 210.911 351.489 210.962V217.093C351.489 217.118 351.489 217.144 351.483 217.163C351.283 217.137 351.082 217.118 350.881 217.093ZM350.954 197.377L352.687 197.593C352.687 197.911 352.681 198.127 352.681 198.229L350.881 198.007V210.803L350.273 210.631V198.007C350.273 197.822 350.346 197.65 350.48 197.53C350.608 197.409 350.778 197.358 350.954 197.377Z" fill="black"/>
<path d="M350.881 210.803V217.093C350.681 217.067 350.474 217.048 350.273 217.023V210.631L350.881 210.803Z" fill="black"/>
<path d="M350.881 217.091C351.082 217.117 351.283 217.136 351.483 217.161C351.453 217.479 351.192 217.727 350.881 217.727C350.547 217.727 350.273 217.448 350.273 217.098V217.021C350.474 217.047 350.681 217.066 350.881 217.091Z" fill="black"/>
<path d="M350.277 210.631V217.023C344.258 216.343 337.436 215.853 329.799 215.719L326.82 196.855C333.095 203.165 341.145 207.985 350.277 210.631Z" fill="#FFC962"/>
<path d="M348.58 67.7344L347.242 96.6724L340.992 67.7344H348.58Z" fill="#7A29E2"/>
<path d="M332.059 237.291C338.06 237.463 355.169 238.334 372.722 242.805L372.594 243.365L371.074 251.537C347.241 246.767 332.162 246.131 332.162 246.131L332.047 237.755L332.059 237.291Z" fill="#5B29C5"/>
<path d="M351.749 162.378C351.184 160.603 349.396 159.974 348.04 159.974C346.776 159.974 345.645 160.476 345.025 161.309C344.465 162.066 344.325 163.046 344.61 164.229C345.06 166.092 348.185 168.636 352.502 170.709C352.29 165.157 351.98 163.109 351.749 162.378ZM344.021 164.388C342.605 158.543 350.91 157.729 352.327 162.181C352.721 163.427 352.971 166.824 353.123 171.066C353.081 171.066 353.044 171.072 353.001 171.085C352.965 171.091 352.929 171.11 352.892 171.123C352.756 171.188 352.648 171.304 352.588 171.447C347.931 169.272 344.55 166.563 344.021 164.388Z" fill="black"/>
<path d="M352.327 162.18C350.911 157.728 342.605 158.542 344.022 164.387C344.551 166.562 347.931 169.271 352.589 171.447V171.453C352.571 171.491 352.558 171.536 352.552 171.574C352.54 171.625 352.539 171.676 352.539 171.726C352.546 171.854 352.546 171.987 352.552 172.121C347.488 169.799 344.01 166.906 343.432 164.546C342.952 162.574 343.511 161.271 344.065 160.526C344.915 159.388 346.399 158.701 348.041 158.701C350.363 158.701 352.273 159.992 352.905 161.977C353.288 163.204 353.568 166.244 353.738 171.269C353.622 171.218 353.5 171.167 353.385 171.116C353.379 171.11 353.367 171.11 353.361 171.11C353.286 171.076 353.205 171.061 353.123 171.065C352.972 166.823 352.722 163.427 352.327 162.18Z" fill="black"/>
<path d="M329.809 284.127C331.906 285.666 335.475 288.331 338.023 290.5C339.556 291.803 340.722 292.923 340.984 293.514C341.184 293.972 339.318 295.791 336.229 298.361C331.652 293.451 321.625 287.084 321.625 287.084C325.419 284.61 328.064 282.861 328.064 282.861C328.064 282.861 328.751 283.351 329.809 284.127Z" fill="#CFA9FF"/>
<path d="M378.064 234.683L374.872 243.365C374.155 243.168 373.437 242.983 372.72 242.805C355.167 238.334 338.058 237.463 332.057 237.291C330.604 237.253 329.801 237.253 329.801 237.253L328.512 227.846L328.5 227.051C335.23 226.911 355.999 227.109 378.332 233.628L378.064 234.683Z" fill="#6F3EFC"/>
<path d="M309.126 94.8535L314.532 120.84L298.967 97.7155L309.126 94.8535ZM306.02 203.202L283.828 221.169L279.572 212.882L306.02 203.202ZM294.772 164.387L260 159.338L262.548 147.87L294.772 164.387Z" fill="#7A29E2"/>
<path d="M295.377 326.586C290.209 327.699 274.249 316.41 274.249 316.41L273.781 316.257C274.195 314.82 274.486 313.573 274.553 312.753C274.705 310.889 272.845 305.509 270.984 300.682C276.925 309.961 286.61 322.732 296.654 326.103C296.113 326.357 295.681 326.522 295.377 326.586Z" fill="#5B29C5"/>
<path d="M261.522 549.688C269.323 551.983 276.333 550.444 278.948 549.694L279.27 552.842C279.27 552.842 297.054 556.658 300.55 557.943C304.046 559.228 303.438 566.198 303.438 566.198L260.422 563.495L261.522 549.688Z" fill="#311950"/>
<path d="M256.796 384.8V384.793C259.453 384.38 262.098 383.852 264.676 383.19C287.02 377.466 287.932 375.24 287.932 375.24C287.932 375.24 288.491 442.548 283.019 478.482C283.019 478.482 282.156 543.303 280.028 549.345C280.028 549.345 279.645 549.492 278.945 549.695C276.331 550.446 269.321 551.985 261.52 549.689C261.155 549.587 260.79 549.472 260.42 549.345C260.42 549.345 260.62 489.084 261.532 480.816C262.444 472.548 251.549 407.835 251.549 407.835L251.172 407.733C254.443 394.423 256.796 384.8 256.796 384.8Z" fill="#503882"/>
<path d="M254.945 257.104C254.945 257.104 271.629 260.277 262.12 274.549C258.885 274.727 254.137 275.16 250.544 275.509C247.656 275.796 245.521 276.025 245.521 276.025L243.862 269.188L242.938 265.372C242.938 265.372 254.49 259.966 254.945 257.104Z" fill="#311950"/>
<path d="M253.99 287.898V291.288L243.672 284.457L253.99 287.898Z" fill="#5B29C5"/>
<path d="M250.544 275.51L253.985 287.899L243.667 284.458L241.266 283.657L245.522 276.025C245.522 276.025 247.656 275.796 250.544 275.51Z" fill="#CFA9FF"/>
<path d="M239.431 243.354C239.991 243.226 240.258 242.215 240.021 241.102C239.79 239.983 239.146 239.181 238.586 239.309C238.027 239.436 237.759 240.447 237.99 241.56C238.227 242.679 238.872 243.481 239.431 243.354ZM245.645 239.525C245.882 240.644 246.527 241.446 247.086 241.318C247.645 241.191 247.913 240.18 247.676 239.061C247.445 237.948 246.8 237.14 246.241 237.273C245.682 237.401 245.414 238.406 245.645 239.525ZM244.417 243.379C244.49 243.697 245.858 249.529 247.044 251.539L249.676 248.041C247.42 247.011 244.593 243.589 244.417 243.379ZM220.9 251.062C221.204 245.656 226.068 246.292 226.068 246.292L226.28 242.158C226.28 242.158 230.938 239.016 234.154 234.125C234.373 234.062 234.573 234.004 234.762 233.96C235.419 233.864 236.884 233.744 237.808 233.954C238.136 234.023 238.459 233.807 238.532 233.464C238.564 233.299 238.533 233.127 238.446 232.985C238.358 232.843 238.221 232.744 238.063 232.707C237.066 232.484 235.759 232.567 235.06 232.643C236.878 229.349 237.887 225.406 236.556 221.17C236.556 221.17 244.824 221.323 247.828 230.163C246.034 230.513 244.697 231.225 244.636 231.257C244.338 231.422 244.222 231.804 244.374 232.115C244.484 232.332 244.697 232.459 244.916 232.459C245.013 232.459 245.104 232.433 245.195 232.389C245.207 232.383 246.472 231.702 248.126 231.39C248.156 231.384 248.18 231.378 248.211 231.378C248.855 233.426 249.567 235.696 250.278 238.011C252.771 246.158 255.294 254.942 254.948 257.104C254.492 259.966 242.94 265.372 242.94 265.372C242.94 265.372 239.596 266.549 235.188 264.653C235.188 264.653 237.887 268.514 243.864 269.188L245.524 276.025L241.268 283.657L229.868 280C234.732 267.757 228.196 255.355 228.196 255.355C228.196 255.355 220.596 256.468 220.9 251.062ZM246.66 259.381C248.764 257.899 248.971 254.401 248.971 254.401C248.971 254.401 244.004 256.099 239.547 255.673C239.547 255.673 244.557 260.869 246.66 259.381Z" fill="#FFC6B3"/>
<path d="M249.673 248.041L247.041 251.539C245.855 249.529 244.487 243.697 244.414 243.379C244.59 243.589 247.418 247.01 249.673 248.041Z" fill="#F77556"/>
<path d="M248.971 254.4C248.971 254.4 248.764 257.898 246.66 259.38C244.557 260.869 239.547 255.672 239.547 255.672C244.004 256.099 248.971 254.4 248.971 254.4Z" fill="white"/>
<path d="M250.515 231.288C249.81 231.199 249.038 231.237 248.211 231.377C248.15 231.173 248.083 230.97 248.023 230.766C247.998 230.696 247.98 230.62 247.956 230.55C247.913 230.417 247.871 230.289 247.828 230.162L247.913 230.143C248.892 229.959 249.81 229.921 250.661 230.029C250.99 230.067 251.233 230.385 251.19 230.735C251.154 231.078 250.85 231.332 250.515 231.288Z" fill="black"/>
<path d="M247.087 241.317C246.527 241.444 245.883 240.643 245.646 239.524C245.415 238.404 245.682 237.399 246.241 237.272C246.801 237.139 247.445 237.946 247.676 239.059C247.913 240.179 247.646 241.19 247.087 241.317Z" fill="#231F20"/>
<path d="M248.123 231.39C246.469 231.701 245.205 232.382 245.192 232.388C245.101 232.433 245.01 232.458 244.913 232.458C244.694 232.458 244.481 232.331 244.372 232.115C244.22 231.803 244.335 231.421 244.633 231.256C244.694 231.224 246.031 230.512 247.825 230.162C247.868 230.289 247.91 230.417 247.953 230.55C247.977 230.62 247.995 230.696 248.02 230.766C248.08 230.97 248.147 231.173 248.208 231.377C248.178 231.377 248.153 231.383 248.123 231.39Z" fill="black"/>
<path d="M242.939 265.371L243.864 269.187C237.887 268.513 235.188 264.652 235.188 264.652C239.595 266.548 242.939 265.371 242.939 265.371Z" fill="#F77556"/>
<path d="M241.27 283.655L235.391 293.405L229.457 283.661L229.451 283.655L227.469 280.405V280.399L229.87 279.998L241.27 283.655Z" fill="#CFA9FF"/>
<path d="M238.585 239.308C239.145 239.181 239.789 239.982 240.02 241.102C240.257 242.215 239.99 243.226 239.43 243.353C238.871 243.48 238.226 242.679 237.989 241.56C237.758 240.447 238.026 239.435 238.585 239.308Z" fill="#231F20"/>
<path d="M235.795 298.92L229.453 283.663L235.387 293.406L241.267 283.656L243.668 284.458L235.795 298.92Z" fill="#5B29C5"/>
<path d="M237.81 233.953C236.886 233.743 235.421 233.864 234.764 233.959C234.576 234.004 234.375 234.061 234.156 234.125C234.333 233.864 234.497 233.597 234.661 233.33H234.667C234.801 233.107 234.935 232.878 235.062 232.643C235.761 232.567 237.069 232.484 238.066 232.707C238.394 232.783 238.601 233.12 238.534 233.463C238.461 233.807 238.139 234.023 237.81 233.953Z" fill="black"/>
<path d="M234.151 234.124C232.765 234.525 230.892 235.225 230.302 235.867C230.246 235.93 230.179 235.98 230.103 236.014C230.028 236.048 229.947 236.065 229.864 236.064C229.712 236.064 229.56 236.007 229.445 235.886C229.387 235.829 229.341 235.76 229.309 235.683C229.277 235.607 229.26 235.525 229.258 235.442C229.256 235.358 229.27 235.276 229.299 235.198C229.328 235.12 229.372 235.05 229.427 234.989C230.576 233.717 234.114 232.808 234.516 232.713L234.607 232.693C234.68 232.687 234.838 232.662 235.057 232.643C234.929 232.878 234.795 233.107 234.662 233.329H234.655C234.491 233.597 234.327 233.864 234.151 234.124Z" fill="black"/>
<path d="M215.921 374.286C215.952 373.014 213.653 367.226 213.653 367.226L215.058 366.533C215.058 366.533 223.485 347.732 222.573 342.644C222.159 340.323 215.186 322.49 211.477 313.096C210.115 309.655 209.197 307.346 209.197 307.346L208.71 307.245L205.129 325.581L199.621 336.444L211.726 360.046C204.716 361.864 200.138 365.217 197.991 367.093C192.325 357.495 181.946 339.783 181.837 338.511C181.685 336.762 202.509 286.2 203.269 285.246C203.445 285.023 204.989 284.616 207.251 284.133C212.863 282.918 222.889 281.182 227.467 280.4V280.406L229.449 283.656L229.455 283.662L235.797 298.92L243.67 284.457L253.988 291.288V287.898L250.547 275.509C254.14 275.159 258.889 274.727 262.123 274.549C264.075 274.447 265.473 274.434 265.741 274.593C266.805 275.229 293.101 303.849 294.925 303.69C296.22 303.576 312.356 293.139 321.622 287.084C321.622 287.084 331.648 293.45 336.226 298.36C326.188 306.717 303.248 322.999 296.658 326.103C286.613 322.732 276.928 309.961 270.988 300.682C272.848 305.509 274.709 310.89 274.557 312.753C274.49 313.574 274.198 314.82 273.785 316.257C272.368 321.186 269.541 328.335 269.541 328.335C269.541 328.335 284.133 356.16 287.933 375.24C287.933 375.24 287.021 377.466 264.677 383.19C262.099 383.852 259.454 384.379 256.797 384.793C236.423 388.017 215.167 384.8 215.167 384.8C215.605 380.004 215.903 374.935 215.921 374.286Z" fill="#6F3EFC"/>
<path d="M220.903 251.062C220.599 256.468 228.199 255.355 228.199 255.355C228.199 255.355 234.735 267.757 229.871 280L227.469 280.4C222.891 281.183 212.865 282.919 207.253 284.134V284.127C207.235 284.127 201.751 284.121 200.991 275.071C200.231 266.008 211.175 261.397 212.239 255.832C213.303 250.267 206.311 245.656 207.527 236.752C208.743 227.848 215.583 216.559 235.191 213.22C254.799 209.881 257.614 227.981 250.281 238.011C249.57 235.696 248.859 233.425 248.214 231.377C249.041 231.238 249.813 231.199 250.519 231.288C250.598 231.299 250.678 231.293 250.755 231.27C250.832 231.248 250.903 231.21 250.966 231.159C251.029 231.107 251.081 231.043 251.12 230.971C251.159 230.898 251.184 230.818 251.193 230.735C251.203 230.652 251.197 230.568 251.176 230.488C251.155 230.408 251.119 230.333 251.069 230.267C251.02 230.201 250.959 230.147 250.89 230.106C250.82 230.065 250.744 230.039 250.665 230.029C249.813 229.921 248.895 229.959 247.916 230.144L247.831 230.163C244.828 221.322 236.559 221.17 236.559 221.17C237.89 225.405 236.881 229.349 235.063 232.643C234.844 232.662 234.686 232.688 234.613 232.694L234.522 232.713C234.121 232.808 230.582 233.718 229.433 234.99C229.202 235.244 229.208 235.645 229.451 235.887C229.567 236.008 229.719 236.065 229.871 236.065C230.029 236.065 230.193 236.001 230.309 235.868C230.898 235.225 232.771 234.526 234.157 234.125C230.941 239.016 226.284 242.158 226.284 242.158L226.071 246.292C226.071 246.292 221.207 245.656 220.903 251.062Z" fill="#311950"/>
<path d="M211.727 360.047L215.059 366.533L213.654 367.227L203.385 372.296L201.598 373.174C201.598 373.174 200.132 370.713 197.992 367.094C200.138 365.218 204.717 361.866 211.727 360.047Z" fill="#CFA9FF"/>
<path d="M213.653 367.227C213.653 367.227 215.952 373.014 215.921 374.286C215.903 374.935 215.605 380.004 215.167 384.799C214.748 389.41 214.201 393.76 213.653 393.684C213.234 393.627 212.182 392.959 210.93 391.859C208.85 390.021 206.23 386.981 205.093 383.508C203.269 377.943 203.384 372.295 203.384 372.295L213.653 367.227Z" fill="#FFC6B3"/>
<path d="M208.434 487.495C208.89 478.432 210.69 393.055 210.927 391.86C212.179 392.96 213.231 393.628 213.651 393.685C214.198 393.761 214.745 389.411 215.165 384.8C215.165 384.8 236.42 388.018 256.794 384.793V384.8C256.794 384.8 254.441 394.423 251.17 407.734C244.142 436.284 232.888 481.79 231.538 485.587C231.538 485.587 230.474 511.459 217.25 544.69C217.25 544.69 216.764 544.856 215.882 545.053C213.183 545.663 206.768 546.605 199.18 544.207C198.329 543.934 197.46 543.622 196.578 543.259C196.578 543.259 207.978 496.558 208.434 487.495Z" fill="#5B29C5"/>
<path d="M199.186 544.207C206.774 546.605 213.188 545.663 215.887 545.053L214.215 562.702L173.023 563.497C173.023 563.497 173.023 558.25 174.239 555.706C175.455 553.162 196.583 549.187 196.583 549.187L199.186 544.207Z" fill="#311950"/>
<path d="M209.193 307.348C209.193 307.348 210.111 309.657 211.473 313.097L211.46 313.104L205.125 325.582L208.706 307.246L209.193 307.348Z" fill="#5B29C5"/>
<path d="M403.608 155.396C403.011 149.451 398.024 140.045 393.476 136.738C392.187 135.801 387.887 133.623 386.261 135.13C383.597 137.598 387.542 141.857 389.016 143.524C391.474 146.305 394.182 149.14 395.816 152.406C397.03 154.832 397.47 158.044 399.048 160.165C403.474 166.112 405.742 158.591 403.202 154.124M401.986 171.932C401.421 173.392 399.738 179.08 400.357 180.836C401.304 183.518 404.203 184.235 405.978 181.684C408.781 177.653 402.82 168.843 401.176 174.052" fill="white"/>
</svg>
